<svg width="25" height="24" viewBox="0 0 25 24" fill="none" xmlns="http://www.w3.org/2000/svg">
<path d="M8.5 7H12.5M8.5 11H16.5M8.5 15H16.5M5.5 2H19.5C20.6046 2 21.5 2.89543 21.5 4V19.1543C21.5 20.5396 20.1259 21.5053 18.8226 21.0361L17.2608 20.4739C16.7728 20.2982 16.2356 20.319 15.7626 20.5318L13.3207 21.6307C12.7988 21.8655 12.2012 21.8655 11.6793 21.6307L9.23737 20.5318C8.76439 20.319 8.22721 20.2982 7.7392 20.4739L6.17744 21.0361C4.87412 21.5053 3.5 20.5396 3.5 19.1543V4C3.5 2.89543 4.39543 2 5.5 2Z"  stroke-width="1.5" stroke-linecap="round"/>
</svg>
