<svg width="33" height="32" viewBox="0 0 33 32" fill="none" xmlns="http://www.w3.org/2000/svg">
<g clip-path="url(#clip0_1598_27935)">
<path d="M15.1665 23.4666C14.1532 23.4666 13.2998 24.3199 13.2998 25.3332C13.2998 26.3466 14.1531 27.1999 15.1665 27.1999C16.1799 27.1999 17.0332 26.3466 17.0332 25.3332C17.0331 24.3199 16.1798 23.4666 15.1665 23.4666ZM15.1665 26.1332C14.7398 26.1332 14.3665 25.7599 14.3665 25.3332C14.3665 24.9065 14.7398 24.5332 15.1665 24.5332C15.5932 24.5332 15.9665 24.9065 15.9665 25.3332C15.9665 25.7599 15.5931 26.1332 15.1665 26.1332Z" fill="#E35700"/>
<path d="M10.7402 8.5332H5.72688C4.60688 8.5332 3.7002 9.43989 3.7002 10.5599V15.5732C3.7002 16.6932 4.60688 17.5999 5.72688 17.5999H10.7402C11.8602 17.5999 12.7669 16.6932 12.7669 15.5732V10.5599C12.7669 9.43989 11.8602 8.5332 10.7402 8.5332ZM11.7002 12.2666V14.3999V15.5732C11.7002 15.7787 11.6364 15.968 11.5279 16.1236C11.4364 16.0448 11.3129 15.9999 11.1669 15.9999C10.8469 15.9999 10.6336 16.2132 10.6336 16.5332H9.56688C9.56688 16.2132 9.35357 15.9999 9.03357 15.9999C8.71357 15.9999 8.5002 16.2132 8.5002 16.5332H7.43351C7.43351 16.2132 7.2202 15.9999 6.9002 15.9999C6.5802 15.9999 6.36688 16.2132 6.36688 16.5332H5.72688C5.56976 16.5332 5.42232 16.4953 5.29188 16.4295C5.2557 16.2013 5.09888 16.0444 4.87063 16.0082C4.80476 15.8778 4.76688 15.7303 4.76688 15.5732V14.9332C5.08688 14.9332 5.3002 14.7199 5.3002 14.3999C5.3002 14.0799 5.08688 13.8666 4.76688 13.8666V12.7999C5.08688 12.7999 5.3002 12.5866 5.3002 12.2666C5.3002 11.9466 5.08688 11.7333 4.76688 11.7333V10.6666C5.08688 10.6666 5.3002 10.4533 5.3002 10.1333C5.3002 9.98714 5.25532 9.86364 5.17651 9.7722C5.33207 9.66383 5.52132 9.59995 5.72688 9.59995C5.72688 9.59995 6.47951 9.59995 6.9002 9.59995C7.66507 9.59995 8.07551 9.59995 9.03351 9.59995C9.79995 9.59995 10.7402 9.59995 10.7402 9.59995C10.8214 9.59995 10.8998 9.61095 10.9749 9.62964C10.7646 9.69827 10.6335 9.88283 10.6335 10.1333C10.6335 10.4533 10.8468 10.6666 11.1668 10.6666C11.4173 10.6666 11.6019 10.5355 11.6705 10.3253C11.6892 10.4005 11.7002 10.4788 11.7002 10.56V12.2666Z" fill="#E35700"/>
<path d="M8.50009 18.6665C6.1534 18.6665 4.2334 20.5865 4.2334 22.9332C4.2334 25.2799 6.1534 27.1998 8.50009 27.1998C10.8468 27.1998 12.7668 25.2798 12.7668 22.9331C12.7668 20.5864 10.8468 18.6665 8.50009 18.6665ZM8.50009 26.1331C6.74009 26.1331 5.30009 24.6931 5.30009 22.9331C5.30009 21.3548 6.4584 20.0347 7.96677 19.7788V21.3331C7.96677 21.6531 8.18009 21.8664 8.50009 21.8664C8.82009 21.8664 9.0334 21.6531 9.0334 21.3331V19.7788C10.5418 20.0347 11.7001 21.3548 11.7001 22.9331C11.7001 24.6931 10.2601 26.1331 8.50009 26.1331Z" fill="#E35700"/>
<path d="M23.4335 5.33325C19.3268 5.33325 15.9668 8.69325 15.9668 12.7999C15.9668 16.9066 19.3268 20.2666 23.4335 20.2666C27.5402 20.2666 30.9002 16.9066 30.9002 12.7999C30.9002 8.69325 27.5402 5.33325 23.4335 5.33325ZM23.4335 19.1999C19.9135 19.1999 17.0335 16.3199 17.0335 12.7999C17.0335 9.27994 19.9135 6.39994 23.4335 6.39994C26.9535 6.39994 29.8335 9.27994 29.8335 12.7999C29.8335 16.3199 26.9535 19.1999 23.4335 19.1999Z" fill="#E35700"/>
<path d="M23.4334 7.46655C20.5001 7.46655 18.1001 9.86655 18.1001 12.7999C18.1001 15.7332 20.5001 18.1332 23.4334 18.1332C26.3667 18.1332 28.7667 15.7332 28.7667 12.7999C28.7667 9.86655 26.3668 7.46655 23.4334 7.46655ZM23.4334 17.0666C21.0867 17.0666 19.1667 15.1466 19.1667 12.7999C19.1667 10.4532 21.0867 8.53318 23.4334 8.53318C25.7801 8.53318 27.7001 10.4532 27.7001 12.7999C27.7001 15.1466 25.7801 17.0666 23.4334 17.0666Z" fill="#E35700"/>
<path d="M24.5001 9.59985C24.1801 9.59985 23.9668 9.81317 23.9668 10.1332C23.9668 10.4532 24.1801 10.6665 24.5001 10.6665C25.0868 10.6665 25.5668 11.4132 25.5668 12.2665C25.5668 12.5865 25.7801 12.7998 26.1001 12.7998C26.4201 12.7998 26.6334 12.5865 26.6334 12.2665C26.6334 10.7732 25.6734 9.59985 24.5001 9.59985Z" fill="white"/>
<path d="M10.1 21.3333C9.78001 21.3333 9.5667 21.5466 9.5667 21.8666V22.3999C9.5667 22.9866 9.0867 23.4666 8.50001 23.4666C7.91332 23.4666 7.43332 22.9866 7.43332 22.3999V21.8666C7.43332 21.5466 7.22001 21.3333 6.90001 21.3333C6.58001 21.3333 6.3667 21.5466 6.3667 21.8666V22.3999C6.3667 23.5732 7.3267 24.5332 8.50001 24.5332C9.67332 24.5332 10.6333 23.5732 10.6333 22.3999V21.8666C10.6333 21.5466 10.42 21.3333 10.1 21.3333Z" fill="#E35700"/>
<path d="M8.5 10.1332C8.5 10.4532 8.71331 10.6665 9.03331 10.6665C9.35331 10.6665 9.56662 10.4532 9.56662 10.1332C9.56662 9.81317 9.35331 9.59985 9.03331 9.59985C8.71331 9.59985 8.5 9.81317 8.5 10.1332Z" fill="#E35700"/>
<path d="M6.3667 10.1332C6.3667 10.4532 6.58001 10.6665 6.90001 10.6665C7.22001 10.6665 7.43332 10.4532 7.43332 10.1332C7.43332 9.81317 7.22001 9.59985 6.90001 9.59985C6.58001 9.59985 6.3667 9.81317 6.3667 10.1332Z" fill="#E35700"/>
<path d="M5.83312 11.7331C6.15312 11.7331 6.36643 11.5198 6.36643 11.1998C6.36643 10.8798 6.15312 10.6665 5.83312 10.6665C5.51312 10.6665 5.2998 10.8798 5.2998 11.1998C5.2998 11.5198 5.51312 11.7331 5.83312 11.7331Z" fill="#E35700"/>
<path d="M7.96691 11.7331C8.28691 11.7331 8.50022 11.5198 8.50022 11.1998C8.50022 10.8798 8.28691 10.6665 7.96691 10.6665C7.64691 10.6665 7.43359 10.8798 7.43359 11.1998C7.43359 11.5198 7.64691 11.7331 7.96691 11.7331Z" fill="#E35700"/>
<path d="M10.1002 10.6665C9.78021 10.6665 9.56689 10.8798 9.56689 11.1998C9.56689 11.5198 9.78021 11.7331 10.1002 11.7331C10.4202 11.7331 10.6335 11.5198 10.6335 11.1998C10.6335 10.8798 10.4202 10.6665 10.1002 10.6665Z" fill="#E35700"/>
<path d="M11.1666 11.7332C10.8466 11.7332 10.6333 11.9465 10.6333 12.2665C10.6333 12.5865 10.8466 12.7998 11.1666 12.7998C11.4866 12.7998 11.6999 12.5865 11.6999 12.2665C11.6999 11.9465 11.4866 11.7332 11.1666 11.7332Z" fill="#E35700"/>
<path d="M9.03331 12.8C9.35331 12.8 9.56662 12.5867 9.56662 12.2667C9.56662 11.9467 9.35331 11.7334 9.03331 11.7334C8.71331 11.7334 8.5 11.9467 8.5 12.2667C8.5 12.5867 8.71331 12.8 9.03331 12.8Z" fill="#E35700"/>
<path d="M6.90001 12.8C7.22001 12.8 7.43332 12.5867 7.43332 12.2667C7.43332 11.9467 7.22001 11.7334 6.90001 11.7334C6.58001 11.7334 6.3667 11.9467 6.3667 12.2667C6.3667 12.5867 6.58001 12.8 6.90001 12.8Z" fill="#E35700"/>
<path d="M5.83312 13.8667C6.15312 13.8667 6.36643 13.6534 6.36643 13.3334C6.36643 13.0134 6.15312 12.8 5.83312 12.8C5.51312 12.8 5.2998 13.0134 5.2998 13.3334C5.2998 13.6534 5.51312 13.8667 5.83312 13.8667Z" fill="#E35700"/>
<path d="M7.96691 12.7998C7.64691 12.7998 7.43359 13.0131 7.43359 13.3331C7.43359 13.6531 7.64691 13.8664 7.96691 13.8664C8.28691 13.8664 8.50022 13.6531 8.50022 13.3331C8.50022 13.0131 8.28691 12.7998 7.96691 12.7998Z" fill="#E35700"/>
<path d="M10.1002 12.7998C9.78021 12.7998 9.56689 13.0131 9.56689 13.3331C9.56689 13.6531 9.78021 13.8664 10.1002 13.8664C10.4202 13.8664 10.6335 13.6531 10.6335 13.3331C10.6335 13.0131 10.4202 12.7998 10.1002 12.7998Z" fill="#E35700"/>
<path d="M11.1666 13.8667C10.8466 13.8667 10.6333 14.08 10.6333 14.4C10.6333 14.72 10.8466 14.9333 11.1666 14.9333C11.4866 14.9333 11.6999 14.72 11.6999 14.4C11.6999 14.08 11.4866 13.8667 11.1666 13.8667Z" fill="#E35700"/>
<path d="M9.03331 13.8667C8.71331 13.8667 8.5 14.08 8.5 14.4C8.5 14.72 8.71331 14.9333 9.03331 14.9333C9.35331 14.9333 9.56662 14.72 9.56662 14.4C9.56669 14.08 9.35331 13.8667 9.03331 13.8667Z" fill="#E35700"/>
<path d="M6.90001 13.8667C6.58001 13.8667 6.3667 14.08 6.3667 14.4C6.3667 14.72 6.58001 14.9333 6.90001 14.9333C7.22001 14.9333 7.43332 14.72 7.43332 14.4C7.43332 14.08 7.22001 13.8667 6.90001 13.8667Z" fill="#E35700"/>
<path d="M5.83312 14.9333C5.51312 14.9333 5.2998 15.1467 5.2998 15.4667C5.2998 15.7867 5.51312 16 5.83312 16C6.15312 16 6.36643 15.7867 6.36643 15.4667C6.36643 15.1467 6.15312 14.9333 5.83312 14.9333Z" fill="#E35700"/>
<path d="M7.96691 14.9333C7.64691 14.9333 7.43359 15.1467 7.43359 15.4667C7.43359 15.7867 7.64691 16 7.96691 16C8.28691 16 8.50022 15.7867 8.50022 15.4667C8.50022 15.1467 8.28691 14.9333 7.96691 14.9333Z" fill="#E35700"/>
<path d="M10.1002 14.9333C9.78021 14.9333 9.56689 15.1467 9.56689 15.4667C9.56689 15.7867 9.78021 16 10.1002 16C10.4202 16 10.6335 15.7867 10.6335 15.4667C10.6335 15.1467 10.4202 14.9333 10.1002 14.9333Z" fill="#E35700"/>
<path d="M12.7666 5.33324H13.8866L13.9933 4.95993C14.3666 3.89324 15.4333 3.19993 16.5533 3.19993H18.6333C18.9533 3.19993 19.1666 2.98661 19.1666 2.66661C19.1666 2.34661 18.9533 2.1333 18.6333 2.1333H16.5533C15.1133 2.1333 13.78 2.98661 13.14 4.26661H12.7667C12.4467 4.26661 12.2334 4.47993 12.2334 4.79993C12.2334 5.11993 12.4466 5.33324 12.7666 5.33324Z" fill="#E35700"/>
<path d="M30.26 3.73315H16.5533C15.7703 3.73315 15.0827 4.16103 14.6958 4.79415C14.6896 4.80415 14.6837 4.81434 14.6776 4.8244C14.6704 4.83647 14.6632 4.84847 14.6562 4.86065C14.4871 5.15353 14.3837 5.48509 14.3689 5.83309C14.3682 5.84422 14.3671 5.85528 14.3666 5.86647H11.1666V3.73315H6.9V5.86647H6.36669V3.73315H2.1V5.86647H1.03331H0.5V29.8665H30.3667V21.8651C31.5171 21.8349 32.5 20.8345 32.5 19.6265V5.91984C32.5 4.74653 31.4867 3.73315 30.26 3.73315ZM7.96669 4.79984H10.1V5.86653H7.96669V4.79984ZM3.16669 4.79984H5.3V5.86653H3.16669V4.79984ZM29.3 28.7998H1.56669V6.93315H2.1H6.36669H6.9H11.1667H14.3667V19.6798C14.3667 20.8532 15.3267 21.8665 16.5534 21.8665H29.3V28.7998ZM31.38 5.91984V19.6265C31.38 20.2132 30.9 20.7465 30.26 20.7465H16.5533C15.9666 20.7465 15.4333 20.2665 15.4333 19.6265V6.93315V5.91984C15.4333 5.33315 15.9666 4.79984 16.5533 4.79984H30.3133C30.9 4.79984 31.4333 5.33315 31.38 5.91984Z" fill="#E35700"/>
</g>
<defs>
<clipPath id="clip0_1598_27935">
<rect width="32" height="32" fill="#E35700" transform="translate(0.5)"/>
</clipPath>
</defs>
</svg>
