<svg width="38" height="37" viewBox="0 0 38 37" fill="none" xmlns="http://www.w3.org/2000/svg">
<g filter="url(#filter0_dd_1903_5161)">
<path d="M12.3332 8V9C12.6675 9 12.9798 8.8329 13.1652 8.5547L12.3332 8ZM14.2082 5.18747L13.3761 4.63277L13.3761 4.63277L14.2082 5.18747ZM23.7915 5.18747L24.6235 4.63277L23.7915 5.18747ZM25.6665 8L24.8345 8.5547C25.0199 8.8329 25.3322 9 25.6665 9V8ZM22.9998 18H21.9998C21.9998 19.6569 20.6567 21 18.9998 21V22V23C21.7613 23 23.9998 20.7614 23.9998 18H22.9998ZM18.9998 22V21C17.343 21 15.9998 19.6569 15.9998 18H14.9998H13.9998C13.9998 20.7614 16.2384 23 18.9998 23V22ZM14.9998 18H15.9998C15.9998 16.3431 17.343 15 18.9998 15V14V13C16.2384 13 13.9998 15.2386 13.9998 18H14.9998ZM18.9998 14V15C20.6567 15 21.9998 16.3431 21.9998 18H22.9998H23.9998C23.9998 15.2386 21.7613 13 18.9998 13V14ZM12.3332 8L13.1652 8.5547L15.0402 5.74217L14.2082 5.18747L13.3761 4.63277L11.5011 7.4453L12.3332 8ZM16.427 4V5H21.5727V4V3H16.427V4ZM23.7915 5.18747L22.9594 5.74217L24.8345 8.5547L25.6665 8L26.4986 7.4453L24.6235 4.63277L23.7915 5.18747ZM21.5727 4V5C22.1299 5 22.6503 5.2785 22.9594 5.74217L23.7915 5.18747L24.6235 4.63277C23.9435 3.6127 22.7986 3 21.5727 3V4ZM14.2082 5.18747L15.0402 5.74217C15.3494 5.2785 15.8697 5 16.427 5V4V3C15.201 3 14.0562 3.6127 13.3761 4.63277L14.2082 5.18747ZM32.3332 13.3333H31.3332V22.6667H32.3332H33.3332V13.3333H32.3332ZM26.9998 28V27H10.9998V28V29H26.9998V28ZM5.6665 22.6667H6.6665V13.3333H5.6665H4.6665V22.6667H5.6665ZM10.9998 28V27C8.6066 27 6.6665 25.0599 6.6665 22.6667H5.6665H4.6665C4.6665 26.1645 7.50203 29 10.9998 29V28ZM32.3332 22.6667H31.3332C31.3332 25.0599 29.3931 27 26.9998 27V28V29C30.4976 29 33.3332 26.1645 33.3332 22.6667H32.3332ZM26.9998 8V9C29.3931 9 31.3332 10.9401 31.3332 13.3333H32.3332H33.3332C33.3332 9.83553 30.4976 7 26.9998 7V8ZM10.9998 8V7C7.50203 7 4.6665 9.83553 4.6665 13.3333H5.6665H6.6665C6.6665 10.9401 8.6066 9 10.9998 9V8ZM10.9998 8V9H12.3332V8V7H10.9998V8ZM26.9998 8V7H25.6665V8V9H26.9998V8Z" fill="#E35700"/>
<circle cx="18.9998" cy="8.00008" r="1.33333" fill="#E35700"/>
</g>
<defs>
<filter id="filter0_dd_1903_5161" x="-1" y="0" width="40" height="40" filterUnits="userSpaceOnUse" color-interpolation-filters="sRGB">
<feFlood flood-opacity="0" result="BackgroundImageFix"/>
<feColorMatrix in="SourceAlpha" type="matrix" values="0 0 0 0 0 0 0 0 0 0 0 0 0 0 0 0 0 0 127 0" result="hardAlpha"/>
<feOffset dy="4"/>
<feGaussianBlur stdDeviation="2"/>
<feComposite in2="hardAlpha" operator="out"/>
<feColorMatrix type="matrix" values="0 0 0 0 0 0 0 0 0 0 0 0 0 0 0 0 0 0 0.25 0"/>
<feBlend mode="normal" in2="BackgroundImageFix" result="effect1_dropShadow_1903_5161"/>
<feColorMatrix in="SourceAlpha" type="matrix" values="0 0 0 0 0 0 0 0 0 0 0 0 0 0 0 0 0 0 127 0" result="hardAlpha"/>
<feOffset dy="4"/>
<feGaussianBlur stdDeviation="2"/>
<feComposite in2="hardAlpha" operator="out"/>
<feColorMatrix type="matrix" values="0 0 0 0 0 0 0 0 0 0 0 0 0 0 0 0 0 0 0.25 0"/>
<feBlend mode="normal" in2="effect1_dropShadow_1903_5161" result="effect2_dropShadow_1903_5161"/>
<feBlend mode="normal" in="SourceGraphic" in2="effect2_dropShadow_1903_5161" result="shape"/>
</filter>
</defs>
</svg>
