<svg width="32" height="32" viewBox="0 0 32 32" fill="none" xmlns="http://www.w3.org/2000/svg">
<g clip-path="url(#clip0_1598_27969)">
<mask id="path-1-inside-1_1598_27969" fill="white">
<path d="M16.7309 7.83032C15.8026 7.83032 15.0474 8.58556 15.0474 9.51384C15.0474 10.4421 15.8026 11.1974 16.7309 11.1974C17.6592 11.1974 18.4144 10.4421 18.4144 9.51384C18.4144 8.58556 17.6592 7.83032 16.7309 7.83032ZM16.7309 10.8059C16.0185 10.8059 15.4389 10.2262 15.4389 9.51384C15.4389 8.80144 16.0185 8.22184 16.7309 8.22184C17.4433 8.22184 18.0229 8.80144 18.0229 9.51384C18.0229 10.2262 17.4433 10.8059 16.7309 10.8059Z"/>
</mask>
<path d="M16.7309 7.83032C15.8026 7.83032 15.0474 8.58556 15.0474 9.51384C15.0474 10.4421 15.8026 11.1974 16.7309 11.1974C17.6592 11.1974 18.4144 10.4421 18.4144 9.51384C18.4144 8.58556 17.6592 7.83032 16.7309 7.83032ZM16.7309 10.8059C16.0185 10.8059 15.4389 10.2262 15.4389 9.51384C15.4389 8.80144 16.0185 8.22184 16.7309 8.22184C17.4433 8.22184 18.0229 8.80144 18.0229 9.51384C18.0229 10.2262 17.4433 10.8059 16.7309 10.8059Z" fill="#E35700"/>
<path d="M16.7309 7.83032V6.83032C15.2503 6.83032 14.0474 8.03327 14.0474 9.51384H15.0474H16.0474C16.0474 9.13784 16.3549 8.83032 16.7309 8.83032V7.83032ZM15.0474 9.51384H14.0474C14.0474 10.9944 15.2503 12.1974 16.7309 12.1974V11.1974V10.1974C16.3549 10.1974 16.0474 9.88985 16.0474 9.51384H15.0474ZM16.7309 11.1974V12.1974C18.2115 12.1974 19.4144 10.9944 19.4144 9.51384H18.4144H17.4144C17.4144 9.88985 17.1069 10.1974 16.7309 10.1974V11.1974ZM18.4144 9.51384H19.4144C19.4144 8.03327 18.2115 6.83032 16.7309 6.83032V7.83032V8.83032C17.1069 8.83032 17.4144 9.13784 17.4144 9.51384H18.4144ZM16.7309 10.8059V9.80585C16.5708 9.80585 16.4389 9.67396 16.4389 9.51384H15.4389H14.4389C14.4389 10.7785 15.4662 11.8059 16.7309 11.8059V10.8059ZM15.4389 9.51384H16.4389C16.4389 9.35373 16.5708 9.22184 16.7309 9.22184V8.22184V7.22184C15.4662 7.22184 14.4389 8.24916 14.4389 9.51384H15.4389ZM16.7309 8.22184V9.22184C16.891 9.22184 17.0229 9.35373 17.0229 9.51384H18.0229H19.0229C19.0229 8.24916 17.9956 7.22184 16.7309 7.22184V8.22184ZM18.0229 9.51384H17.0229C17.0229 9.67396 16.891 9.80585 16.7309 9.80585V10.8059V11.8059C17.9956 11.8059 19.0229 10.7785 19.0229 9.51384H18.0229Z" fill="#E35700" mask="url(#path-1-inside-1_1598_27969)"/>
<mask id="path-3-inside-2_1598_27969" fill="white">
<path d="M16.7311 6.97119C15.329 6.97119 14.1885 8.11176 14.1885 9.51386C14.1885 10.916 15.329 12.0565 16.7311 12.0565C18.1331 12.0565 19.2737 10.916 19.2737 9.51386C19.2737 8.11176 18.1331 6.97119 16.7311 6.97119ZM16.7311 11.665C15.545 11.665 14.58 10.7 14.58 9.51386C14.58 8.32772 15.545 7.36271 16.7311 7.36271C17.9172 7.36271 18.8822 8.32772 18.8822 9.51386C18.8822 10.7 17.9172 11.665 16.7311 11.665Z"/>
</mask>
<path d="M16.7311 6.97119C15.329 6.97119 14.1885 8.11176 14.1885 9.51386C14.1885 10.916 15.329 12.0565 16.7311 12.0565C18.1331 12.0565 19.2737 10.916 19.2737 9.51386C19.2737 8.11176 18.1331 6.97119 16.7311 6.97119ZM16.7311 11.665C15.545 11.665 14.58 10.7 14.58 9.51386C14.58 8.32772 15.545 7.36271 16.7311 7.36271C17.9172 7.36271 18.8822 8.32772 18.8822 9.51386C18.8822 10.7 17.9172 11.665 16.7311 11.665Z" fill="#E35700"/>
<path d="M16.7311 6.97119V5.97119C14.7767 5.97119 13.1885 7.55949 13.1885 9.51386H14.1885H15.1885C15.1885 8.66402 15.8813 7.97119 16.7311 7.97119V6.97119ZM14.1885 9.51386H13.1885C13.1885 11.4682 14.7767 13.0565 16.7311 13.0565V12.0565V11.0565C15.8813 11.0565 15.1885 10.3637 15.1885 9.51386H14.1885ZM16.7311 12.0565V13.0565C18.6854 13.0565 20.2737 11.4683 20.2737 9.51386H19.2737H18.2737C18.2737 10.3637 17.5808 11.0565 16.7311 11.0565V12.0565ZM19.2737 9.51386H20.2737C20.2737 7.55945 18.6854 5.97119 16.7311 5.97119V6.97119V7.97119C17.5808 7.97119 18.2737 8.66406 18.2737 9.51386H19.2737ZM16.7311 11.665V10.665C16.0973 10.665 15.58 10.1477 15.58 9.51386H14.58H13.58C13.58 11.2523 14.9927 12.665 16.7311 12.665V11.665ZM14.58 9.51386H15.58C15.58 8.87998 16.0973 8.36271 16.7311 8.36271V7.36271V6.36271C14.9927 6.36271 13.58 7.77546 13.58 9.51386H14.58ZM16.7311 7.36271V8.36271C17.3649 8.36271 17.8822 8.88 17.8822 9.51386H18.8822H19.8822C19.8822 7.77543 18.4695 6.36271 16.7311 6.36271V7.36271ZM18.8822 9.51386H17.8822C17.8822 10.1477 17.3649 10.665 16.7311 10.665V11.665V12.665C18.4695 12.665 19.8822 11.2523 19.8822 9.51386H18.8822Z" fill="#E35700" mask="url(#path-3-inside-2_1598_27969)"/>
<mask id="path-5-inside-3_1598_27969" fill="white">
<path d="M29.7944 0.952717V1.17455H29.1158V0.952717H28.7242V1.17455H28.0456V0H10.1141V0.391517H8.6475L8.01661 5.9119H7.44499C7.18973 5.9119 6.98199 6.11956 6.98199 6.37491V6.38172H4.08476V5.9119H1.81396V13.1158H4.08476V12.646H6.19895V16.1827H7.08175L7.60998 13.1158H8.00001V13.155H8.00048L8.00001 17.6183H10.1142V18.1664H11.0151L10.9835 18.3399H9.89894C9.80318 18.3399 9.71336 18.3773 9.64587 18.4449C9.5786 18.5124 9.54165 18.6021 9.54204 18.6974C9.54446 19.4567 9.46773 20.3776 9.24519 20.6852C9.19601 20.7528 9.18912 20.8412 9.22718 20.9158C9.26539 20.9909 9.3415 21.0376 9.42544 21.0376C9.83865 21.0382 10.2465 21.0454 10.4907 21.0506L10.4836 21.0898C10.4601 21.2188 10.4935 21.3517 10.5752 21.4543C10.6569 21.5568 10.779 21.619 10.9099 21.625C11.0752 21.6326 11.2245 21.7069 11.3301 21.8343C11.4356 21.9617 11.481 22.1221 11.4577 22.2859L10.2858 30.5348C10.2526 30.7679 10.1179 30.9709 9.91625 31.0919C9.78619 31.1699 9.69849 31.3065 9.68173 31.4573C9.66646 31.5953 9.71078 31.7338 9.80341 31.8374C9.89605 31.9409 10.0288 32.0002 10.1677 32.0002H15.5137C16.0112 32.0002 16.4366 31.6448 16.5253 31.1552L18.2742 21.4945C18.4425 20.5642 19.2509 19.8891 20.1961 19.8891H23.0449C23.4417 19.8891 23.7917 19.6217 23.8961 19.2389L24.1887 18.1664H28.0457V4.28061H28.7243V4.50244H29.1158V4.28061H29.7945V4.50244H30.186V4.28061V1.17455V0.952717H29.7944ZM3.69332 12.7243H2.20556V12.646H3.69332V12.7243ZM3.69332 12.2545H2.20556V11.9935H3.69332V12.2545ZM3.69332 11.602H2.20556V11.3409H3.69332V11.602ZM3.69332 10.9494H2.20556V10.6884H3.69332V10.9494ZM3.69332 10.2969H2.20556V10.0359H3.69332V10.2969ZM3.69332 9.64439H2.20556V9.38333H3.69332V9.64439ZM3.69332 8.99181H2.20556V8.73082H3.69332V8.99181ZM3.69332 8.33931H2.20556V8.07832H3.69332V8.33931ZM3.69332 7.68681H2.20556V7.42574H3.69332V7.68681ZM3.69332 7.03423H2.20556V6.77324H3.69332V7.03423ZM3.69332 6.38172H2.20556V6.30342H3.69332V6.38172ZM4.89395 12.2545H4.08484V6.77324H4.89395V12.2545ZM5.83359 12.2545H5.28547V6.77324H5.83359V12.2545ZM6.22511 6.77324H6.98207V12.2545H6.22511V6.77324ZM6.75185 15.7912H6.59055V13.8336H7.08903L6.75185 15.7912ZM7.15645 13.4421H6.59055V12.646H6.98207V12.6528C6.98207 12.8275 7.07932 12.9798 7.22253 13.0587L7.15645 13.4421ZM8.00001 12.7243H7.44507C7.40569 12.7243 7.37358 12.6923 7.37358 12.6528V12.646V6.38172V6.37491C7.37358 6.33545 7.40561 6.30342 7.44507 6.30342H8.00001V12.7243ZM10.1142 17.2267H8.39153V13.155H10.1142V17.2267ZM10.1142 12.7634H8.39153V6.26427H10.1142V12.7634ZM10.1142 5.87275H8.41517L8.99681 0.783034H10.1142V5.87275ZM10.5057 6.26427H26.7928V12.7634H10.5057V6.26427ZM10.5615 20.6604C10.3749 20.6563 10.053 20.65 9.69982 20.6473C9.89894 20.1211 9.93371 19.2662 9.93355 18.7314H10.9123L10.5615 20.6604ZM23.5184 19.1359C23.4603 19.3488 23.2656 19.4975 23.0449 19.4975H20.1961C19.0614 19.4975 18.091 20.3081 17.8889 21.4246L16.14 31.0853C16.0851 31.3884 15.8217 31.6085 15.5136 31.6085H10.1676C10.1298 31.6085 10.1059 31.5881 10.0951 31.5761C10.0842 31.5639 10.0667 31.538 10.0708 31.5003C10.0741 31.4703 10.0916 31.4432 10.1175 31.4275C10.4209 31.2455 10.6235 30.9401 10.6733 30.5897L11.8453 22.3408C11.8837 22.0704 11.8058 21.7946 11.6315 21.5843C11.4571 21.374 11.2007 21.2463 10.9277 21.2338C10.9029 21.2327 10.888 21.2186 10.8813 21.2101C10.8747 21.2018 10.8642 21.1842 10.8687 21.1597L11.4129 18.1664H23.7828L23.5184 19.1359ZM27.6542 1.17455V4.28061V17.7749H10.5057V13.155H27.1843V5.87275H10.5057V0.391517H27.6542V1.17455ZM28.7242 3.88909H28.0456V1.56607H28.7242V3.88909ZM29.7944 3.88909H29.1158V1.56607H29.7944V3.88909Z"/>
</mask>
<path d="M29.7944 0.952717V1.17455H29.1158V0.952717H28.7242V1.17455H28.0456V0H10.1141V0.391517H8.6475L8.01661 5.9119H7.44499C7.18973 5.9119 6.98199 6.11956 6.98199 6.37491V6.38172H4.08476V5.9119H1.81396V13.1158H4.08476V12.646H6.19895V16.1827H7.08175L7.60998 13.1158H8.00001V13.155H8.00048L8.00001 17.6183H10.1142V18.1664H11.0151L10.9835 18.3399H9.89894C9.80318 18.3399 9.71336 18.3773 9.64587 18.4449C9.5786 18.5124 9.54165 18.6021 9.54204 18.6974C9.54446 19.4567 9.46773 20.3776 9.24519 20.6852C9.19601 20.7528 9.18912 20.8412 9.22718 20.9158C9.26539 20.9909 9.3415 21.0376 9.42544 21.0376C9.83865 21.0382 10.2465 21.0454 10.4907 21.0506L10.4836 21.0898C10.4601 21.2188 10.4935 21.3517 10.5752 21.4543C10.6569 21.5568 10.779 21.619 10.9099 21.625C11.0752 21.6326 11.2245 21.7069 11.3301 21.8343C11.4356 21.9617 11.481 22.1221 11.4577 22.2859L10.2858 30.5348C10.2526 30.7679 10.1179 30.9709 9.91625 31.0919C9.78619 31.1699 9.69849 31.3065 9.68173 31.4573C9.66646 31.5953 9.71078 31.7338 9.80341 31.8374C9.89605 31.9409 10.0288 32.0002 10.1677 32.0002H15.5137C16.0112 32.0002 16.4366 31.6448 16.5253 31.1552L18.2742 21.4945C18.4425 20.5642 19.2509 19.8891 20.1961 19.8891H23.0449C23.4417 19.8891 23.7917 19.6217 23.8961 19.2389L24.1887 18.1664H28.0457V4.28061H28.7243V4.50244H29.1158V4.28061H29.7945V4.50244H30.186V4.28061V1.17455V0.952717H29.7944ZM3.69332 12.7243H2.20556V12.646H3.69332V12.7243ZM3.69332 12.2545H2.20556V11.9935H3.69332V12.2545ZM3.69332 11.602H2.20556V11.3409H3.69332V11.602ZM3.69332 10.9494H2.20556V10.6884H3.69332V10.9494ZM3.69332 10.2969H2.20556V10.0359H3.69332V10.2969ZM3.69332 9.64439H2.20556V9.38333H3.69332V9.64439ZM3.69332 8.99181H2.20556V8.73082H3.69332V8.99181ZM3.69332 8.33931H2.20556V8.07832H3.69332V8.33931ZM3.69332 7.68681H2.20556V7.42574H3.69332V7.68681ZM3.69332 7.03423H2.20556V6.77324H3.69332V7.03423ZM3.69332 6.38172H2.20556V6.30342H3.69332V6.38172ZM4.89395 12.2545H4.08484V6.77324H4.89395V12.2545ZM5.83359 12.2545H5.28547V6.77324H5.83359V12.2545ZM6.22511 6.77324H6.98207V12.2545H6.22511V6.77324ZM6.75185 15.7912H6.59055V13.8336H7.08903L6.75185 15.7912ZM7.15645 13.4421H6.59055V12.646H6.98207V12.6528C6.98207 12.8275 7.07932 12.9798 7.22253 13.0587L7.15645 13.4421ZM8.00001 12.7243H7.44507C7.40569 12.7243 7.37358 12.6923 7.37358 12.6528V12.646V6.38172V6.37491C7.37358 6.33545 7.40561 6.30342 7.44507 6.30342H8.00001V12.7243ZM10.1142 17.2267H8.39153V13.155H10.1142V17.2267ZM10.1142 12.7634H8.39153V6.26427H10.1142V12.7634ZM10.1142 5.87275H8.41517L8.99681 0.783034H10.1142V5.87275ZM10.5057 6.26427H26.7928V12.7634H10.5057V6.26427ZM10.5615 20.6604C10.3749 20.6563 10.053 20.65 9.69982 20.6473C9.89894 20.1211 9.93371 19.2662 9.93355 18.7314H10.9123L10.5615 20.6604ZM23.5184 19.1359C23.4603 19.3488 23.2656 19.4975 23.0449 19.4975H20.1961C19.0614 19.4975 18.091 20.3081 17.8889 21.4246L16.14 31.0853C16.0851 31.3884 15.8217 31.6085 15.5136 31.6085H10.1676C10.1298 31.6085 10.1059 31.5881 10.0951 31.5761C10.0842 31.5639 10.0667 31.538 10.0708 31.5003C10.0741 31.4703 10.0916 31.4432 10.1175 31.4275C10.4209 31.2455 10.6235 30.9401 10.6733 30.5897L11.8453 22.3408C11.8837 22.0704 11.8058 21.7946 11.6315 21.5843C11.4571 21.374 11.2007 21.2463 10.9277 21.2338C10.9029 21.2327 10.888 21.2186 10.8813 21.2101C10.8747 21.2018 10.8642 21.1842 10.8687 21.1597L11.4129 18.1664H23.7828L23.5184 19.1359ZM27.6542 1.17455V4.28061V17.7749H10.5057V13.155H27.1843V5.87275H10.5057V0.391517H27.6542V1.17455ZM28.7242 3.88909H28.0456V1.56607H28.7242V3.88909ZM29.7944 3.88909H29.1158V1.56607H29.7944V3.88909Z" fill="#E35700" stroke="#E35700" stroke-width="2" mask="url(#path-5-inside-3_1598_27969)"/>
<mask id="path-6-inside-4_1598_27969" fill="white">
<path d="M18.8061 3.88916H10.8975V5.69014H18.8061V3.88916ZM18.4146 5.29862H11.289V4.28068H18.4146V5.29862Z"/>
</mask>
<path d="M18.8061 3.88916H10.8975V5.69014H18.8061V3.88916ZM18.4146 5.29862H11.289V4.28068H18.4146V5.29862Z" fill="#E35700"/>
<path d="M18.8061 3.88916H19.8061V2.88916H18.8061V3.88916ZM10.8975 3.88916V2.88916H9.89746V3.88916H10.8975ZM10.8975 5.69014H9.89746V6.69014H10.8975V5.69014ZM18.8061 5.69014V6.69014H19.8061V5.69014H18.8061ZM18.4146 5.29862V6.29862H19.4146V5.29862H18.4146ZM11.289 5.29862H10.289V6.29862H11.289V5.29862ZM11.289 4.28068V3.28068H10.289V4.28068H11.289ZM18.4146 4.28068H19.4146V3.28068H18.4146V4.28068ZM18.8061 3.88916V2.88916H10.8975V3.88916V4.88916H18.8061V3.88916ZM10.8975 3.88916H9.89746V5.69014H10.8975H11.8975V3.88916H10.8975ZM10.8975 5.69014V6.69014H18.8061V5.69014V4.69014H10.8975V5.69014ZM18.8061 5.69014H19.8061V3.88916H18.8061H17.8061V5.69014H18.8061ZM18.4146 5.29862V4.29862H11.289V5.29862V6.29862H18.4146V5.29862ZM11.289 5.29862H12.289V4.28068H11.289H10.289V5.29862H11.289ZM11.289 4.28068V5.28068H18.4146V4.28068V3.28068H11.289V4.28068ZM18.4146 4.28068H17.4146V5.29862H18.4146H19.4146V4.28068H18.4146Z" fill="#E35700" mask="url(#path-6-inside-4_1598_27969)"/>
<mask id="path-8-inside-5_1598_27969" fill="white">
<path d="M26.2314 5.79439C26.6559 5.79439 27.0013 5.44899 27.0013 5.02443C27.0013 4.59979 26.6559 4.25439 26.2314 4.25439C25.8068 4.25439 25.4614 4.59979 25.4614 5.02443C25.4614 5.44899 25.8068 5.79439 26.2314 5.79439ZM26.2314 4.64591C26.4401 4.64591 26.6098 4.81575 26.6098 5.02443C26.6098 5.23311 26.4401 5.40287 26.2314 5.40287C26.0227 5.40287 25.8529 5.23311 25.8529 5.02443C25.8529 4.81575 26.0227 4.64591 26.2314 4.64591Z"/>
</mask>
<path d="M26.2314 5.79439C26.6559 5.79439 27.0013 5.44899 27.0013 5.02443C27.0013 4.59979 26.6559 4.25439 26.2314 4.25439C25.8068 4.25439 25.4614 4.59979 25.4614 5.02443C25.4614 5.44899 25.8068 5.79439 26.2314 5.79439ZM26.2314 4.64591C26.4401 4.64591 26.6098 4.81575 26.6098 5.02443C26.6098 5.23311 26.4401 5.40287 26.2314 5.40287C26.0227 5.40287 25.8529 5.23311 25.8529 5.02443C25.8529 4.81575 26.0227 4.64591 26.2314 4.64591Z" fill="#E35700"/>
<path d="M26.2314 5.79439V6.79439C27.2082 6.79439 28.0013 6.00128 28.0013 5.02443H27.0013H26.0013C26.0013 4.8967 26.1037 4.79439 26.2314 4.79439V5.79439ZM27.0013 5.02443H28.0013C28.0013 4.04757 27.2083 3.25439 26.2314 3.25439V4.25439V5.25439C26.1036 5.25439 26.0013 5.15201 26.0013 5.02443H27.0013ZM26.2314 4.25439V3.25439C25.2545 3.25439 24.4614 4.04757 24.4614 5.02443H25.4614H26.4614C26.4614 5.15201 26.3592 5.25439 26.2314 5.25439V4.25439ZM25.4614 5.02443H24.4614C24.4614 6.00128 25.2545 6.79439 26.2314 6.79439V5.79439V4.79439C26.3591 4.79439 26.4614 4.8967 26.4614 5.02443H25.4614ZM26.2314 4.64591V5.64591C25.8875 5.64591 25.6098 5.36777 25.6098 5.02443H26.6098H27.6098C27.6098 4.26373 26.9926 3.64591 26.2314 3.64591V4.64591ZM26.6098 5.02443H25.6098C25.6098 4.68082 25.8878 4.40287 26.2314 4.40287V5.40287V6.40287C26.9923 6.40287 27.6098 5.7854 27.6098 5.02443H26.6098ZM26.2314 5.40287V4.40287C26.575 4.40287 26.8529 4.68082 26.8529 5.02443H25.8529H24.8529C24.8529 5.7854 25.4704 6.40287 26.2314 6.40287V5.40287ZM25.8529 5.02443H26.8529C26.8529 5.36777 26.5753 5.64591 26.2314 5.64591V4.64591V3.64591C25.4702 3.64591 24.8529 4.26373 24.8529 5.02443H25.8529Z" fill="#E35700" mask="url(#path-8-inside-5_1598_27969)"/>
<mask id="path-10-inside-6_1598_27969" fill="white">
<path d="M26.2314 13.3855C25.8068 13.3855 25.4614 13.7309 25.4614 14.1555C25.4614 14.58 25.8068 14.9254 26.2314 14.9254C26.6559 14.9254 27.0013 14.58 27.0013 14.1555C27.0013 13.7309 26.6559 13.3855 26.2314 13.3855ZM26.2314 14.5339C26.0227 14.5339 25.8529 14.3641 25.8529 14.1555C25.8529 13.9468 26.0227 13.777 26.2314 13.777C26.4401 13.777 26.6098 13.9468 26.6098 14.1555C26.6098 14.3641 26.4401 14.5339 26.2314 14.5339Z"/>
</mask>
<path d="M26.2314 13.3855C25.8068 13.3855 25.4614 13.7309 25.4614 14.1555C25.4614 14.58 25.8068 14.9254 26.2314 14.9254C26.6559 14.9254 27.0013 14.58 27.0013 14.1555C27.0013 13.7309 26.6559 13.3855 26.2314 13.3855ZM26.2314 14.5339C26.0227 14.5339 25.8529 14.3641 25.8529 14.1555C25.8529 13.9468 26.0227 13.777 26.2314 13.777C26.4401 13.777 26.6098 13.9468 26.6098 14.1555C26.6098 14.3641 26.4401 14.5339 26.2314 14.5339Z" fill="#E35700"/>
<path d="M26.2314 13.3855V12.3855C25.2545 12.3855 24.4614 13.1786 24.4614 14.1555H25.4614H26.4614C26.4614 14.2832 26.3591 14.3855 26.2314 14.3855V13.3855ZM25.4614 14.1555H24.4614C24.4614 15.1323 25.2545 15.9254 26.2314 15.9254V14.9254V13.9254C26.3591 13.9254 26.4614 14.0277 26.4614 14.1555H25.4614ZM26.2314 14.9254V15.9254C27.2082 15.9254 28.0013 15.1323 28.0013 14.1555H27.0013H26.0013C26.0013 14.0277 26.1037 13.9254 26.2314 13.9254V14.9254ZM27.0013 14.1555H28.0013C28.0013 13.1786 27.2082 12.3855 26.2314 12.3855V13.3855V14.3855C26.1037 14.3855 26.0013 14.2832 26.0013 14.1555H27.0013ZM26.2314 14.5339V13.5339C26.575 13.5339 26.8529 13.8118 26.8529 14.1555H25.8529H24.8529C24.8529 14.9164 25.4704 15.5339 26.2314 15.5339V14.5339ZM25.8529 14.1555H26.8529C26.8529 14.4991 26.575 14.777 26.2314 14.777V13.777V12.777C25.4704 12.777 24.8529 13.3945 24.8529 14.1555H25.8529ZM26.2314 13.777V14.777C25.8878 14.777 25.6098 14.4991 25.6098 14.1555H26.6098H27.6098C27.6098 13.3945 26.9923 12.777 26.2314 12.777V13.777ZM26.6098 14.1555H25.6098C25.6098 13.8118 25.8878 13.5339 26.2314 13.5339V14.5339V15.5339C26.9923 15.5339 27.6098 14.9164 27.6098 14.1555H26.6098Z" fill="#E35700" mask="url(#path-10-inside-6_1598_27969)"/>
<mask id="path-12-inside-7_1598_27969" fill="white">
<path d="M19.7975 18.2969H15.0732V19.4714H19.7975V18.2969ZM19.406 19.0799H15.4648V18.6884H19.406V19.0799Z"/>
</mask>
<path d="M19.7975 18.2969H15.0732V19.4714H19.7975V18.2969ZM19.406 19.0799H15.4648V18.6884H19.406V19.0799Z" fill="#E35700"/>
<path d="M19.7975 18.2969H20.7975V17.2969H19.7975V18.2969ZM15.0732 18.2969V17.2969H14.0732V18.2969H15.0732ZM15.0732 19.4714H14.0732V20.4714H15.0732V19.4714ZM19.7975 19.4714V20.4714H20.7975V19.4714H19.7975ZM19.406 19.0799V20.0799H20.406V19.0799H19.406ZM15.4648 19.0799H14.4648V20.0799H15.4648V19.0799ZM15.4648 18.6884V17.6884H14.4648V18.6884H15.4648ZM19.406 18.6884H20.406V17.6884H19.406V18.6884ZM19.7975 18.2969V17.2969H15.0732V18.2969V19.2969H19.7975V18.2969ZM15.0732 18.2969H14.0732V19.4714H15.0732H16.0732V18.2969H15.0732ZM15.0732 19.4714V20.4714H19.7975V19.4714V18.4714H15.0732V19.4714ZM19.7975 19.4714H20.7975V18.2969H19.7975H18.7975V19.4714H19.7975ZM19.406 19.0799V18.0799H15.4648V19.0799V20.0799H19.406V19.0799ZM15.4648 19.0799H16.4648V18.6884H15.4648H14.4648V19.0799H15.4648ZM15.4648 18.6884V19.6884H19.406V18.6884V17.6884H15.4648V18.6884ZM19.406 18.6884H18.406V19.0799H19.406H20.406V18.6884H19.406Z" fill="#E35700" mask="url(#path-12-inside-7_1598_27969)"/>
</g>
<defs>
<clipPath id="clip0_1598_27969">
<rect width="32" height="32" fill="white"/>
</clipPath>
</defs>
</svg>
