<svg width="32" height="32" viewBox="0 0 32 32" fill="none" xmlns="http://www.w3.org/2000/svg">
<path fill-rule="evenodd" clip-rule="evenodd" d="M17.9873 6.875C17.3399 6.875 16.7842 7.29523 16.5762 7.875H9.55566C8.41795 7.875 7.44605 8.71849 7.28516 9.84473L6.56641 14.875H6C4.34909 14.875 3 16.2241 3 17.875V22.375H2.5C2.22386 22.375 2 22.5989 2 22.875C2 23.1511 2.22386 23.375 2.5 23.375H7.21094C7.59876 24.2557 8.48035 24.875 9.5 24.875C10.5196 24.875 11.4012 24.2557 11.7891 23.375H20.2109C20.5988 24.2557 21.4804 24.875 22.5 24.875C23.5196 24.875 24.4012 24.2557 24.7891 23.375H29.5C29.7761 23.375 30 23.1511 30 22.875C30 22.5989 29.7761 22.375 29.5 22.375H29V17.875C29 16.2241 27.6509 14.875 26 14.875H23.9746C23.8596 14.3216 23.3714 13.8963 22.791 13.877L22.5635 12.2852C23.108 11.9973 23.4457 11.3878 23.3545 10.7471V10.7461L23.2051 9.70309V9.70209C22.974 8.08799 21.575 6.875 19.9443 6.875H17.9873ZM17.9873 7.875H19.9443C21.079 7.875 22.0544 8.72055 22.2148 9.84375V9.84476L22.3643 10.8887C22.4034 11.1674 22.2192 11.4133 21.9404 11.4532H21.9394C21.6606 11.4932 21.4145 11.3089 21.374 11.0303V11.0293L21.2256 9.98633C21.1355 9.3555 20.5814 8.875 19.9443 8.875H17.9873C17.7052 8.875 17.4873 8.65707 17.4873 8.375C17.4873 8.09293 17.7052 7.875 17.9873 7.875ZM9.55566 8.875H10V12.875C10 13.5588 10.5662 14.125 11.25 14.125C11.9338 14.125 12.5 13.5588 12.5 12.875V10.875C12.5 10.7278 12.6029 10.625 12.75 10.625C12.8971 10.625 13 10.7278 13 10.875V11.375C13 12.0588 13.5662 12.625 14.25 12.625C14.3355 12.625 14.4191 12.6164 14.5 12.5996V14.875H7.57617L8.27539 9.98535C8.36696 9.34435 8.90816 8.875 9.55566 8.875ZM11 8.875H14.5V11.375C14.5 11.5222 14.3971 11.625 14.25 11.625C14.1029 11.625 14 11.5222 14 11.375V10.875C14 10.1911 13.4338 9.625 12.75 9.625C12.0662 9.625 11.5 10.1911 11.5 10.875V12.875C11.5 13.0222 11.3971 13.125 11.25 13.125C11.1029 13.125 11 13.0222 11 12.875V8.875ZM15.5 8.875H16.5762C16.7842 9.45477 17.3399 9.875 17.9873 9.875H19.9443C20.1121 9.875 20.2117 9.96105 20.2354 10.127L20.3838 11.1709V11.1719C20.4758 11.8122 20.9703 12.3028 21.5732 12.4268L21.7812 13.875H19.25C18.6516 13.875 18.1431 14.3085 18.0254 14.875H15.5V8.875ZM19.25 14.875H22.75C22.8971 14.875 23 14.9778 23 15.125C23 15.2722 22.8971 15.375 22.75 15.375H20C19.7239 15.375 19.5 15.5989 19.5 15.875V16.875C19.5 17.0222 19.3971 17.125 19.25 17.125C19.1029 17.125 19 17.0222 19 16.875V15.125C19 14.9778 19.1029 14.875 19.25 14.875ZM6 15.875H18V16.875C18 17.5589 18.5662 18.125 19.25 18.125C19.9338 18.125 20.5 17.5589 20.5 16.875V16.375H22.75C23.1533 16.375 23.5147 16.1769 23.7441 15.875H26C26.9372 15.875 27.715 16.5098 27.9355 17.375H26.5C25.6775 17.375 25 18.0525 25 18.875C25 19.6975 25.6775 20.375 26.5 20.375H28V22.375H25C25 21.0002 23.8748 19.875 22.5 19.875C21.1252 19.875 20 21.0002 20 22.375H12C12 21.0002 10.8748 19.875 9.5 19.875C8.12522 19.875 7 21.0002 7 22.375H4V20.375H4.5C5.3225 20.375 6 19.6975 6 18.875C6 18.0525 5.3225 17.375 4.5 17.375H4.06445C4.28502 16.5098 5.06282 15.875 6 15.875ZM4 18.375H4.5C4.78206 18.375 5 18.5929 5 18.875C5 19.1571 4.78206 19.375 4.5 19.375H4V18.375ZM26.5 18.375H28V19.375H26.5C26.2179 19.375 26 19.1571 26 18.875C26 18.5929 26.2179 18.375 26.5 18.375ZM9.5 20.875C10.3343 20.875 11 21.5407 11 22.375C11 23.2094 10.3343 23.875 9.5 23.875C8.66566 23.875 8 23.2094 8 22.375C8 21.5407 8.66566 20.875 9.5 20.875ZM22.5 20.875C23.3343 20.875 24 21.5407 24 22.375C24 23.2094 23.3343 23.875 22.5 23.875C21.6657 23.875 21 23.2094 21 22.375C21 21.5407 21.6657 20.875 22.5 20.875Z" fill="#E35700"/>
<path fill-rule="evenodd" clip-rule="evenodd" d="M15 17.375C14.3161 17.375 13.75 17.9412 13.75 18.625C13.75 19.3089 14.3161 19.875 15 19.875H17C17.6839 19.875 18.25 19.3089 18.25 18.625C18.25 17.9412 17.6839 17.375 17 17.375H15ZM15 18.375H17C17.1471 18.375 17.25 18.4778 17.25 18.625C17.25 18.7722 17.1471 18.875 17 18.875H15C14.8529 18.875 14.75 18.7722 14.75 18.625C14.75 18.4778 14.8529 18.375 15 18.375Z" fill="#E35700"/>
<path fill-rule="evenodd" clip-rule="evenodd" d="M29 2.34351C28.8674 2.34351 28.7402 2.39616 28.6464 2.48993C28.5527 2.5837 28.5 2.7109 28.5 2.84351C28.5 2.97611 28.5527 3.10328 28.6464 3.19705C28.7402 3.29082 28.8674 3.34351 29 3.34351C29.1326 3.34351 29.2598 3.29082 29.3536 3.19705C29.4473 3.10328 29.5 2.97611 29.5 2.84351C29.5 2.7109 29.4473 2.5837 29.3536 2.48993C29.2598 2.39616 29.1326 2.34351 29 2.34351Z" fill="#E35700"/>
<path fill-rule="evenodd" clip-rule="evenodd" d="M26.9814 8.29898C26.8876 8.39275 26.835 8.51991 26.835 8.6525C26.835 8.78509 26.8876 8.91225 26.9814 9.00601L27.6884 9.71304C27.7822 9.80679 27.9093 9.85947 28.0419 9.85947C28.1745 9.85947 28.3017 9.80679 28.3954 9.71304C28.4892 9.61928 28.5418 9.49212 28.5418 9.35953C28.5418 9.22694 28.4892 9.09978 28.3954 9.00601L27.6884 8.29898C27.5946 8.20524 27.4675 8.15259 27.3349 8.15259C27.2023 8.15259 27.0751 8.20524 26.9814 8.29898Z" fill="#E35700"/>
<path fill-rule="evenodd" clip-rule="evenodd" d="M24.8603 6.17792C24.7665 6.27168 24.7139 6.39884 24.7139 6.53143C24.7139 6.66402 24.7665 6.79118 24.8603 6.88495L25.5673 7.59198C25.6611 7.68572 25.7882 7.73837 25.9208 7.73837C26.0534 7.73837 26.1806 7.68572 26.2743 7.59198C26.3681 7.49821 26.4207 7.37105 26.4207 7.23846C26.4207 7.10587 26.3681 6.97871 26.2743 6.88495L25.5673 6.17792C25.4735 6.08417 25.3464 6.03149 25.2138 6.03149C25.0812 6.03149 24.954 6.08417 24.8603 6.17792Z" fill="#E35700"/>
<path fill-rule="evenodd" clip-rule="evenodd" d="M25.5673 8.29898L24.8603 9.00601C24.7665 9.09978 24.7139 9.22694 24.7139 9.35953C24.7139 9.49212 24.7665 9.61928 24.8603 9.71304C24.954 9.80679 25.0812 9.85947 25.2138 9.85947C25.3464 9.85947 25.4735 9.80679 25.5673 9.71304L26.2743 9.00601C26.3681 8.91225 26.4207 8.78509 26.4207 8.6525C26.4207 8.51991 26.3681 8.39275 26.2743 8.29898C26.1806 8.20524 26.0534 8.15259 25.9208 8.15259C25.7882 8.15259 25.6611 8.20524 25.5673 8.29898Z" fill="#E35700"/>
<path fill-rule="evenodd" clip-rule="evenodd" d="M27.6884 6.17792L26.9814 6.88495C26.8876 6.97871 26.835 7.10587 26.835 7.23846C26.835 7.37105 26.8876 7.49821 26.9814 7.59198C27.0751 7.68572 27.2023 7.73837 27.3349 7.73837C27.4675 7.73837 27.5946 7.68572 27.6884 7.59198L28.3954 6.88495C28.4892 6.79118 28.5418 6.66402 28.5418 6.53143C28.5418 6.39884 28.4892 6.27168 28.3954 6.17792C28.3017 6.08417 28.1745 6.03149 28.0419 6.03149C27.9093 6.03149 27.7822 6.08417 27.6884 6.17792Z" fill="#E35700"/>
<path fill-rule="evenodd" clip-rule="evenodd" d="M14.3882 3.88965C14.2556 3.88965 14.1284 3.94233 14.0346 4.0361C13.9409 4.12987 13.8882 4.25704 13.8882 4.38965C13.8882 4.52226 13.9409 4.64943 14.0346 4.74319C14.1284 4.83696 14.2556 4.88965 14.3882 4.88965C14.5208 4.88965 14.648 4.83696 14.7417 4.74319C14.8355 4.64943 14.8882 4.52226 14.8882 4.38965C14.8882 4.25704 14.8355 4.12987 14.7417 4.0361C14.648 3.94233 14.5208 3.88965 14.3882 3.88965Z" fill="#E35700"/>
<path fill-rule="evenodd" clip-rule="evenodd" d="M17.7333 27.0099L16.7675 27.2687C16.6394 27.3031 16.5303 27.3868 16.464 27.5017C16.3977 27.6165 16.3797 27.753 16.414 27.881C16.4483 28.0091 16.5321 28.1183 16.6469 28.1846C16.7618 28.2509 16.8982 28.2689 17.0263 28.2346L17.9921 27.9758C18.1202 27.9414 18.2294 27.8577 18.2957 27.7428C18.362 27.628 18.3799 27.4915 18.3456 27.3635C18.3113 27.2354 18.2275 27.1262 18.1127 27.0599C17.9979 26.9936 17.8614 26.9756 17.7333 27.0099Z" fill="#E35700"/>
<path fill-rule="evenodd" clip-rule="evenodd" d="M14.8358 27.7863L13.87 28.0451C13.8065 28.062 13.7469 28.0912 13.6947 28.1312C13.6426 28.1711 13.5987 28.2209 13.5658 28.2778C13.5329 28.3346 13.5115 28.3974 13.5029 28.4626C13.4942 28.5277 13.4985 28.5939 13.5155 28.6574C13.5325 28.7209 13.5618 28.7805 13.6019 28.8326C13.6419 28.8848 13.6918 28.9285 13.7488 28.9614C13.8058 28.9942 13.8687 29.0155 13.9339 29.024C13.9991 29.0325 14.0653 29.0281 14.1288 29.0109L15.0946 28.7521C15.2227 28.7178 15.3319 28.634 15.3981 28.5192C15.4644 28.4044 15.4824 28.2679 15.4481 28.1398C15.4138 28.0118 15.33 27.9026 15.2152 27.8363C15.1003 27.77 14.9639 27.752 14.8358 27.7863Z" fill="#E35700"/>
<path fill-rule="evenodd" clip-rule="evenodd" d="M16.0605 28.4933C15.9324 28.5277 15.8232 28.6115 15.7569 28.7263C15.6906 28.8411 15.6727 28.9776 15.707 29.1056L15.9658 30.0715C16.0001 30.1995 16.0839 30.3087 16.1987 30.375C16.3135 30.4413 16.45 30.4593 16.5781 30.425C16.7061 30.3907 16.8153 30.3069 16.8816 30.192C16.9479 30.0772 16.9659 29.9408 16.9316 29.8127L16.6728 28.8469C16.6385 28.7188 16.5547 28.6096 16.4398 28.5433C16.325 28.477 16.1886 28.459 16.0605 28.4933Z" fill="#E35700"/>
<path fill-rule="evenodd" clip-rule="evenodd" d="M15.2841 25.5959C15.156 25.6302 15.0469 25.714 14.9806 25.8288C14.9143 25.9436 14.8963 26.0801 14.9306 26.2082L15.1894 27.174C15.2237 27.3021 15.3075 27.4113 15.4223 27.4776C15.5372 27.5439 15.6736 27.5618 15.8017 27.5275C15.9298 27.4932 16.0389 27.4094 16.1052 27.2946C16.1715 27.1798 16.1895 27.0433 16.1552 26.9152L15.8964 25.9494C15.8621 25.8213 15.7783 25.7121 15.6635 25.6458C15.5486 25.5795 15.4122 25.5616 15.2841 25.5959Z" fill="#E35700"/>
<path fill-rule="evenodd" clip-rule="evenodd" d="M4.12842 3.31738C3.99581 3.31738 3.86863 3.37007 3.77486 3.46384C3.6811 3.5576 3.62842 3.68477 3.62842 3.81738C3.62842 3.94999 3.6811 4.07719 3.77486 4.17096C3.86863 4.26473 3.99581 4.31738 4.12842 4.31738C4.26103 4.31738 4.3882 4.26473 4.48197 4.17096C4.57574 4.07719 4.62842 3.94999 4.62842 3.81738C4.62842 3.68477 4.57574 3.5576 4.48197 3.46384C4.3882 3.37007 4.26103 3.31738 4.12842 3.31738Z" fill="#E35700"/>
<path fill-rule="evenodd" clip-rule="evenodd" d="M2.9707 9.64062C2.83809 9.64062 2.71092 9.69328 2.61715 9.78705C2.52338 9.88082 2.4707 10.008 2.4707 10.1406C2.4707 10.2732 2.52338 10.4004 2.61715 10.4942C2.71092 10.5879 2.83809 10.6406 2.9707 10.6406C3.10331 10.6406 3.23049 10.5879 3.32426 10.4942C3.41802 10.4004 3.4707 10.2732 3.4707 10.1406C3.4707 10.008 3.41802 9.88082 3.32426 9.78705C3.23049 9.69328 3.10331 9.64062 2.9707 9.64062Z" fill="#E35700"/>
<path fill-rule="evenodd" clip-rule="evenodd" d="M4.48096 27.9626C4.34835 27.9626 4.22117 28.0153 4.1274 28.1091C4.03364 28.2028 3.98096 28.33 3.98096 28.4626C3.98096 28.5953 4.03364 28.7224 4.1274 28.8162C4.22117 28.91 4.34835 28.9626 4.48096 28.9626C4.61357 28.9626 4.74074 28.91 4.83451 28.8162C4.92828 28.7224 4.98096 28.5953 4.98096 28.4626C4.98096 28.33 4.92828 28.2028 4.83451 28.1091C4.74074 28.0153 4.61357 27.9626 4.48096 27.9626Z" fill="#E35700"/>
<path fill-rule="evenodd" clip-rule="evenodd" d="M27.4194 26.885C27.2868 26.885 27.1596 26.9377 27.0659 27.0315C26.9721 27.1252 26.9194 27.2524 26.9194 27.385C26.9194 27.5176 26.9721 27.6448 27.0659 27.7386C27.1596 27.8323 27.2868 27.885 27.4194 27.885C27.552 27.885 27.6792 27.8323 27.773 27.7386C27.8668 27.6448 27.9194 27.5176 27.9194 27.385C27.9194 27.2524 27.8668 27.1252 27.773 27.0315C27.6792 26.9377 27.552 26.885 27.4194 26.885Z" fill="#E35700"/>
</svg>
