<svg width="24" height="24" viewBox="0 0 24 24" fill="none" xmlns="http://www.w3.org/2000/svg">
<path d="M21 4.5H3C2.60218 4.5 2.22064 4.65804 1.93934 4.93934C1.65804 5.22064 1.5 5.60218 1.5 6V18C1.5 18.3978 1.65804 18.7794 1.93934 19.0607C2.22064 19.342 2.60218 19.5 3 19.5H21C21.3978 19.5 21.7794 19.342 22.0607 19.0607C22.342 18.7794 22.5 18.3978 22.5 18V6C22.5 5.60218 22.342 5.22064 22.0607 4.93934C21.7794 4.65804 21.3978 4.5 21 4.5ZM19.35 6L12 11.085L4.65 6H19.35ZM3 18V6.6825L11.5725 12.615C11.698 12.7021 11.8472 12.7488 12 12.7488C12.1528 12.7488 12.302 12.7021 12.4275 12.615L21 6.6825V18H3Z" fill="#E35700" fill-opacity="0.7"/>
<path d="M3 5H21C21.2321 5 21.4558 5.08073 21.6338 5.22656L21.707 5.29297C21.8946 5.4805 22 5.73478 22 6V18C22 18.2321 21.9193 18.4558 21.7734 18.6338L21.707 18.707C21.5195 18.8946 21.2652 19 21 19H3C2.76791 19 2.54417 18.9193 2.36621 18.7734L2.29297 18.707C2.10543 18.5195 2 18.2652 2 18V6L2.00488 5.90137C2.02434 5.70504 2.10152 5.5188 2.22656 5.36621L2.29297 5.29297C2.45711 5.12883 2.67237 5.02757 2.90137 5.00488L3 5ZM20.7158 6.27148L12.1426 12.2041C12.1007 12.2331 12.0509 12.249 12 12.249C11.9747 12.249 11.9497 12.2447 11.9258 12.2373L11.8574 12.2041L3.28418 6.27148L2.5 5.72852V18.5H21.5V5.72852L20.7158 6.27148ZM4.36523 6.41113L11.7158 11.4961L12 11.6934L12.2842 11.4961L19.6348 6.41113L20.9512 5.5H3.04883L4.36523 6.41113Z" stroke="#E35700" stroke-opacity="0.7"/>
</svg>
