<svg width="100%" height="100%" viewBox="0 0 341 196" fill="none" xmlns="http://www.w3.org/2000/svg">
<g clip-path="url(#clip0_1389_4626)">
<rect width="341" height="196" rx="20" />
<path d="M274.722 178.796C274.722 192.513 263.626 203.633 249.938 203.633V178.796H274.722Z" fill="#3699FF"/>
<path d="M324.29 153.958C310.602 153.958 299.506 142.838 299.506 129.121H324.29V153.958Z" fill="#D6DA34"/>
<path d="M250.117 208.934C233.484 208.934 220 195.429 220 178.77H250.117V208.934Z" fill="#6ED47C"/>
<path d="M249.938 191.472C242.952 191.472 237.29 185.797 237.29 178.796H249.938V191.472Z" fill="#D5E155"/>
<path d="M348.702 67.0657H336.31C329.466 67.0657 323.918 72.6257 323.918 79.4844H336.31C343.154 79.4844 348.702 73.9243 348.702 67.0657Z" fill="#6ED47C"/>
<path d="M274.722 166.377H287.051C293.93 166.377 299.506 171.937 299.506 178.796H287.177C280.298 178.796 274.722 173.236 274.722 166.377Z" fill="#6ED47C"/>
<path d="M299.506 203.633V178.796C299.506 165.079 310.602 153.958 324.29 153.958V178.796C324.29 192.513 313.194 203.633 299.506 203.633Z" fill="#6ED47C"/>
<path d="M311.898 178.71V166.397C311.898 159.527 317.446 153.958 324.29 153.958V166.272C324.29 173.141 318.742 178.71 311.898 178.71Z" fill="#2D3652"/>
<path d="M292.156 153.873C292.156 149.757 295.485 146.421 299.591 146.421C303.698 146.421 307.027 149.757 307.027 153.873C307.027 157.988 303.698 161.324 299.591 161.324C295.485 161.324 292.156 157.988 292.156 153.873Z" fill="#FF743C"/>
<path d="M295.916 153.916C295.916 151.858 297.581 150.19 299.634 150.19C301.687 150.19 303.352 151.858 303.352 153.916C303.352 155.973 301.687 157.641 299.634 157.641C297.581 157.641 295.916 155.973 295.916 153.916Z" fill="#FFC700"/>
<path d="M324.29 116.617C324.29 109.758 318.742 104.198 311.898 104.198C305.054 104.198 299.506 109.758 299.506 116.617C299.506 123.475 305.054 129.035 311.898 129.035H324.29V116.617Z" fill="#FF743C"/>
<path d="M323.976 79.3003V88.2777C323.976 93.2357 319.963 97.2551 315.013 97.2551V88.2777C315.013 83.3197 319.026 79.3003 323.976 79.3003Z" fill="#A04AE3"/>
<path d="M324.29 122.612C324.29 119.064 321.42 116.188 317.88 116.188C314.34 116.188 311.471 119.064 311.471 122.612C311.471 126.159 314.34 129.035 317.88 129.035H324.29V122.612Z" fill="#FFC700"/>
<path d="M274.722 191.215C274.722 184.356 280.27 178.796 287.114 178.796C293.958 178.796 299.506 184.356 299.506 191.215C299.506 198.073 293.958 203.633 287.114 203.633C280.27 203.633 274.722 198.073 274.722 191.215Z" fill="#FF743C"/>
<path d="M280.277 191.086C280.277 187.279 283.357 184.192 287.157 184.192C290.956 184.192 294.036 187.279 294.036 191.086C294.036 194.894 290.956 197.981 287.157 197.981C283.357 197.981 280.277 194.894 280.277 191.086Z" fill="#2D3652"/>
<path d="M324.204 104.198C324.204 90.4803 335.301 79.3601 348.988 79.3601V104.198H324.204Z" fill="#FF743C"/>
<path d="M348.988 153.873C335.301 153.873 324.204 142.752 324.204 129.035H348.988V153.873Z" fill="#3699FF"/>
<path d="M324.204 129.035C324.204 115.318 335.301 104.198 348.988 104.198V129.035H324.204Z" fill="#6ED47C"/>
<path d="M336.34 129.035C336.34 122.034 342.003 116.359 348.988 116.359V129.035H336.34Z" fill="#D5E155"/>
<path d="M324.29 191.253C324.29 198.112 329.838 203.672 336.682 203.672C343.526 203.672 349.074 198.112 349.074 191.253C349.074 184.395 343.526 178.834 336.682 178.834H324.29V191.253Z" fill="#FFC700"/>
<path d="M324.29 185.258C324.29 188.806 327.159 191.681 330.699 191.681C334.239 191.681 337.109 188.806 337.109 185.258C337.109 181.71 334.239 178.834 330.699 178.834H324.29V185.258Z" fill="#FF743C"/>
<path d="M336.596 153.873C343.44 153.873 348.988 159.433 348.988 166.291C348.988 173.15 343.44 178.71 336.596 178.71C329.752 178.71 324.204 173.15 324.204 166.291C324.204 159.433 329.752 153.873 336.596 153.873Z" fill="#FF743C"/>
<path d="M336.724 159.44C340.524 159.44 343.604 162.527 343.604 166.334C343.604 170.142 340.524 173.229 336.724 173.229C332.925 173.229 329.845 170.142 329.845 166.334C329.845 162.527 332.925 159.44 336.724 159.44Z" fill="#2D3652"/>
</g>
<defs>
<clipPath id="clip0_1389_4626">
<rect width="341" height="196" rx="20" fill="white"/>
</clipPath>
</defs>
</svg>
