<svg width="24" height="24" viewBox="0 0 24 24" fill="none" xmlns="http://www.w3.org/2000/svg">
<path d="M20.5801 19.3699L17.5901 11.0099C17.3801 10.4599 16.9101 10.1199 16.3701 10.1199C15.8301 10.1199 15.3701 10.4599 15.1401 11.0299L12.1601 19.3699C12.1234 19.4632 12.1057 19.5629 12.1081 19.6631C12.1106 19.7634 12.1331 19.8621 12.1744 19.9535C12.2156 20.0449 12.2748 20.1271 12.3484 20.1952C12.422 20.2633 12.5085 20.316 12.6028 20.3501C12.6971 20.3842 12.7973 20.3991 12.8974 20.3938C12.9976 20.3885 13.0956 20.3632 13.1858 20.3194C13.276 20.2755 13.3565 20.214 13.4225 20.1385C13.4885 20.0631 13.5387 19.9751 13.5701 19.8799L14.1901 18.1499H18.5401L19.1601 19.8799C19.2701 20.1899 19.5601 20.3799 19.8701 20.3799C19.9501 20.3799 20.0401 20.3699 20.1201 20.3399C20.307 20.2722 20.4594 20.133 20.5438 19.953C20.6282 19.773 20.6377 19.5669 20.5701 19.3799L20.5801 19.3699ZM14.7401 16.6399L16.3801 12.0499L18.0201 16.6399H14.7401ZM12.1901 7.84988C9.93012 11.4199 7.89012 13.5799 5.41012 15.0199C5.32542 15.0691 5.23184 15.1012 5.13474 15.1143C5.03764 15.1274 4.93891 15.1212 4.84419 15.0962C4.74947 15.0711 4.66062 15.0276 4.58271 14.9682C4.5048 14.9088 4.43935 14.8346 4.39012 14.7499C4.34006 14.6654 4.30731 14.5718 4.2938 14.4745C4.28028 14.3772 4.28626 14.2782 4.3114 14.1833C4.33653 14.0884 4.3803 13.9994 4.44017 13.9215C4.50004 13.8437 4.57481 13.7785 4.66012 13.7299C6.76012 12.5099 8.48012 10.7599 10.4101 7.85988H4.12012C3.71012 7.85988 3.37012 7.51988 3.37012 7.10988C3.37012 6.69988 3.71012 6.35988 4.12012 6.35988H7.87012V4.37988C7.87012 3.96988 8.21012 3.62988 8.62012 3.62988C9.03012 3.62988 9.37012 3.96988 9.37012 4.37988V6.35988H13.1201C13.5301 6.35988 13.8701 6.69988 13.8701 7.10988C13.8701 7.51988 13.5301 7.85988 13.1201 7.85988H12.1801L12.1901 7.84988ZM12.2301 15.1199C12.1001 15.1199 11.9701 15.0899 11.8501 15.0199C11.2001 14.6399 10.5701 14.2199 9.98012 13.7799C9.82099 13.6605 9.71579 13.4829 9.68766 13.2859C9.65952 13.089 9.71077 12.889 9.83012 12.7299C9.94946 12.5708 10.1271 12.4656 10.3241 12.4374C10.521 12.4093 10.721 12.4605 10.8801 12.5799C11.4201 12.9899 12.0101 13.3699 12.6101 13.7199C12.7522 13.8035 12.8628 13.9315 12.925 14.0842C12.9872 14.2369 12.9975 14.4058 12.9543 14.5649C12.9111 14.724 12.8168 14.8645 12.686 14.9647C12.5551 15.065 12.395 15.1195 12.2301 15.1199Z" fill="#E35700" fill-opacity="0.7"/>
<path d="M15.9092 11.8818L14.2695 16.4717L14.0303 17.1396H18.7295L18.4912 16.4717L16.8506 11.8818L16.4004 10.6221C16.6623 10.6326 16.9109 10.7774 17.0625 11.0557L17.123 11.1885L20.002 19.2402L19.9922 19.251L20.0996 19.5498C20.1221 19.6121 20.1189 19.6812 20.0908 19.7412C20.0697 19.7861 20.036 19.8233 19.9941 19.8486L19.9502 19.8701L19.9443 19.8721C19.9437 19.8723 19.942 19.8724 19.9395 19.873C19.9356 19.874 19.9297 19.875 19.9229 19.876C19.9082 19.8781 19.8899 19.8799 19.8701 19.8799C19.7897 19.8799 19.7161 19.8435 19.6689 19.7822L19.6309 19.7129V19.7109L19.0107 17.9814L18.8916 17.6494H13.8379L13.7197 17.9814L13.0996 19.7109L13.0957 19.7236C13.0852 19.7553 13.0678 19.7845 13.0459 19.8096C13.0239 19.8346 12.9968 19.8555 12.9668 19.8701C12.9369 19.8846 12.9043 19.8928 12.8711 19.8945C12.8377 19.8963 12.8039 19.8913 12.7725 19.8799C12.7412 19.8685 12.7129 19.8507 12.6885 19.8281C12.664 19.8055 12.6436 19.7784 12.6299 19.748C12.623 19.7327 12.618 19.7165 12.6143 19.7002L12.6084 19.6514C12.6076 19.618 12.6127 19.5838 12.625 19.5527L12.6279 19.5459L12.6309 19.5381L15.6074 11.2061C15.7731 10.8047 16.0626 10.6248 16.3584 10.6201L15.9092 11.8818ZM8.62012 4.12988C8.75397 4.12988 8.87012 4.24603 8.87012 4.37988V6.86035H13.1201C13.254 6.86035 13.3701 6.97649 13.3701 7.11035C13.3698 7.24401 13.2538 7.36035 13.1201 7.36035H12.1797V7.77051L11.8369 7.49609L11.8262 7.50586L10.9727 8.36035H11.2627C9.36511 11.2192 7.61626 13.0477 5.60156 14.3193L5.15918 14.5879C5.13135 14.6041 5.10025 14.6148 5.06836 14.6191C5.03634 14.6235 5.00291 14.6215 4.97168 14.6133C4.94056 14.605 4.91135 14.5898 4.88574 14.5703C4.87306 14.5606 4.86111 14.55 4.85059 14.5381L4.82227 14.499L4.82031 14.4951L4.7998 14.4521C4.79456 14.4372 4.79126 14.4211 4.78906 14.4053C4.78476 14.3739 4.78685 14.3421 4.79492 14.3115C4.80307 14.2807 4.8175 14.2518 4.83691 14.2266C4.84666 14.2139 4.85714 14.2018 4.86914 14.1914L4.9082 14.1641L4.91113 14.1621C7.09915 12.891 8.8704 11.0754 10.8262 8.13672L11.3438 7.36035H4.12012C3.98642 7.36035 3.87039 7.24401 3.87012 7.11035C3.87012 6.97649 3.98626 6.86035 4.12012 6.86035H8.37012V4.37988C8.37012 4.24603 8.48626 4.12988 8.62012 4.12988ZM10.3945 12.9326C10.4592 12.9234 10.5255 12.939 10.5781 12.9775V12.9785C11.1377 13.4034 11.7453 13.7928 12.3564 14.1494V14.1504C12.404 14.1784 12.4411 14.2214 12.4619 14.2725C12.4827 14.3235 12.4861 14.3804 12.4717 14.4336C12.4572 14.4869 12.4257 14.5348 12.3818 14.5684C12.3381 14.6018 12.2845 14.6189 12.2295 14.6191C12.204 14.6191 12.1811 14.6167 12.1602 14.6113L12.1025 14.5879C11.6277 14.3103 11.1631 14.0109 10.7178 13.6973L10.2793 13.3789C10.2268 13.3391 10.1919 13.2801 10.1826 13.2148C10.1734 13.1494 10.1908 13.0832 10.2305 13.0303C10.2702 12.9773 10.329 12.942 10.3945 12.9326Z" stroke="#E35700" stroke-opacity="0.7"/>
</svg>
