<svg width="32" height="32" viewBox="0 0 32 32" fill="none" xmlns="http://www.w3.org/2000/svg">
<g clip-path="url(#clip0_1598_27981)">
<path d="M17.9592 30.5305V30.0081H21.0286V29.0285H17.9592V28.506H19.5265V27.5264H17.9592V26.4815H17.5021V26.0244H16.5224V26.4815H15.4776V26.0244H14.4979V26.4815H13.4531V26.0244H12.4735V26.4815H11.4939V26.0244H10.5143V26.4815H9.53469V26.0244H8.55513V26.4815H7.44487V26.0244H6.46531V26.4815H5.48569V26.0244H4.50612V26.4815H3.5265V26.0244H2.54694V26.4815H1.50206V26.0244H0.522438V26.4815H0V31.5101H0.979563V27.4612H16.9796V31.5101H17.5021H17.9592H22.4653V30.5305H17.9592Z" fill="#E35700"/>
<path d="M3.98348 28.5713H1.95898V29.5509H3.98348V28.5713Z" fill="#E35700"/>
<path d="M5.02876 29.551H3.98389V30.5306H5.02876V29.551Z" fill="#E35700"/>
<path d="M0 23.0857V24.0653H0.522438V25.5021H1.50206V24.0653H2.54694V25.5021H3.5265V24.0653H4.50612V25.5021H5.48569V24.0653H6.46531V25.5021H7.44487V24.0653H8.55513V25.5021H9.53469V24.0653H10.5143V25.5021H11.4939V24.0653H12.4735V25.5021H13.4531V24.0653H14.4979V25.5021H15.4776V24.0653H16.5224V25.5021H17.5021V24.0653H17.9592V23.0857H0Z" fill="#E35700"/>
<path d="M16.4571 20.0162V15.9067L16.9097 15.9915L17.0903 15.0287L9.00006 13.5117L0.90975 15.0287L1.09025 15.9915L1.50206 15.9143V20.0162H0V20.9958H1.50206V22.4978H2.48163V15.7307L9.00006 14.5085L15.4776 15.723V22.4978H16.4571V20.9958H32V20.0162H16.4571Z" fill="#E35700"/>
<path d="M10.9717 17.4692V22.4978H11.9512V18.4489H13.5186V22.4978H14.4982V17.4692H10.9717Z" fill="#E35700"/>
<path d="M3.51025 17.5203V20.9999H9.98988V17.5203H3.51025V17.5203ZM6.98782 20.0203H4.48988V18.4999H6.98782V20.0203ZM9.01032 20.0203H7.96744V18.5H9.01032V20.0203Z" fill="#E35700"/>
<path d="M9.53477 9.12375V8.06519H8.55521V9.10444L1.89746 10.5311L2.10271 11.489L2.54702 11.3937V14.0081H3.52659V11.1839L9.00015 10.011L14.498 11.1891V14.0081H15.4776V11.3991L15.8975 11.489L16.1027 10.5311L9.53477 9.12375Z" fill="#E35700"/>
<path d="M9.53474 11.0039H8.55518V12.506H9.53474V11.0039Z" fill="#E35700"/>
<path d="M31.9998 24.5225H17.959V25.502H31.9998V24.5225Z" fill="#E35700"/>
<path d="M22.9876 21.5183H19.0039V22.4979H22.9876V21.5183Z" fill="#E35700"/>
<path d="M27.9512 23.0857H21.4858V24.0653H27.9512V23.0857Z" fill="#E35700"/>
<path d="M28.9957 21.5183H27.4937V22.4979H28.9957V21.5183Z" fill="#E35700"/>
<path d="M21.0288 26.4814H19.9839V27.461H21.0288V26.4814Z" fill="#E35700"/>
<path d="M23.4449 27.5264H22.4653V28.5059H23.4449V27.5264Z" fill="#E35700"/>
<path d="M24.555 26.4814H23.4448V27.461H24.555V26.4814Z" fill="#E35700"/>
<path d="M27.9512 28.5713H26.9717V29.5509H27.9512V28.5713Z" fill="#E35700"/>
<path d="M30.4981 27.5264H29.5186V28.5059H30.4981V27.5264Z" fill="#E35700"/>
<path d="M28.4732 27.0039H27.4937V27.9835H28.4732V27.0039Z" fill="#E35700"/>
<path d="M31.4776 26.0244H30.498V27.004H31.4776V26.0244Z" fill="#E35700"/>
<path d="M31.4776 30.0081H30.498V30.9876H31.4776V30.0081Z" fill="#E35700"/>
<path d="M26.5142 30.5305H25.5347V31.5101H26.5142V30.5305Z" fill="#E35700"/>
<path d="M25.5347 29.551H24.5552V30.5306H25.5347V29.551Z" fill="#E35700"/>
<path d="M23.5001 4.02026C22.1271 4.02026 21.0103 5.1372 21.0103 6.51008C21.0103 7.88295 22.1271 8.99989 23.5001 8.99989C24.8729 8.99989 25.9899 7.88295 25.9899 6.51008C25.9899 5.1372 24.8729 4.02026 23.5001 4.02026ZM23.5001 8.02026C22.6674 8.02026 21.9899 7.34276 21.9899 6.51008C21.9899 5.67739 22.6674 4.99989 23.5001 4.99989C24.3328 4.99989 25.0103 5.67739 25.0103 6.51008C25.0103 7.34276 24.3328 8.02026 23.5001 8.02026Z" fill="#E35700"/>
<path d="M27.9512 9.04492H26.9717V10.0245H27.9512V9.04492Z" fill="#E35700"/>
<path d="M17.9591 4.99585H16.9795V5.97541H17.9591V4.99585Z" fill="#E35700"/>
<path d="M20.5059 11.5264H19.5264V12.5059H20.5059V11.5264Z" fill="#E35700"/>
<path d="M30.041 4.01636H28.9961V4.99592H30.041V4.01636Z" fill="#E35700"/>
<path d="M14.2885 3.06872L7.53809 6.31958L7.96315 7.20222L14.7136 3.95136L14.2885 3.06872Z" fill="#E35700"/>
<path d="M25.9918 14.5305H25.0122V15.5101H25.9918V14.5305Z" fill="#E35700"/>
<path d="M16.5224 8.06519H15.4775V9.04475H16.5224V8.06519Z" fill="#E35700"/>
<path d="M26.5142 1.46924H25.5347V2.44886H26.5142V1.46924Z" fill="#E35700"/>
<path d="M3.52632 1.46924H2.48145V2.44886H3.52632V1.46924Z" fill="#E35700"/>
<path d="M5.48591 4.99585H4.50635V5.97541H5.48591V4.99585Z" fill="#E35700"/>
<path d="M16.0001 0.489746H15.0205V1.46931H16.0001V0.489746Z" fill="#E35700"/>
</g>
<defs>
<clipPath id="clip0_1598_27981">
<rect width="32" height="32" fill="white"/>
</clipPath>
</defs>
</svg>
