<svg width="26" height="34" viewBox="0 0 26 34" fill="none" xmlns="http://www.w3.org/2000/svg">
<path d="M18.8685 32.1971C17.4348 32.7789 16.1501 33.1889 14.5994 32.9109L11.6794 32.5335C11.0059 32.4796 9.66579 32.4052 9.00298 32.5104L8.75251 32.5402C7.32533 32.6588 5.8552 32.4374 4.73499 31.471C4.16594 30.98 3.96901 30.2855 3.91883 29.5622L2.23954 29.164C1.84591 29.0656 1.25766 29.0293 1.17365 28.5279L1.16888 28.4969C1.11933 28.1883 1.31945 27.8752 1.42653 27.5975L4.89204 19.9194L7.69232 14.6207C7.90275 14.2637 8.21743 14.0119 8.16534 13.6403L7.79121 11.1051L7.30579 8.60106C7.06269 7.44398 6.76152 6.28653 6.28849 5.19917L5.91019 4.39379C5.55384 3.67291 5.43728 3.58335 6.11858 2.98636C6.9423 2.26454 8.85271 1.12387 10.0031 1.00809C10.1975 0.960382 10.4097 1.13266 10.4975 1.28726L10.5134 1.31585C10.685 1.61794 10.5538 2.33159 10.6147 2.7026C10.6685 3.03008 10.7906 3.30208 10.9332 3.59946L10.9433 3.62082C11.2207 4.19043 11.7944 4.57011 12.377 4.76774C13.6446 5.19772 14.8794 4.30852 15.2835 3.12473C15.413 2.74538 15.4234 2.36637 15.4232 1.96999C15.4225 0.970889 15.6778 0.873813 16.5606 1.13484C17.8144 1.50559 18.969 2.12804 19.9478 2.99451C20.1977 3.21573 20.5455 3.54939 20.3489 3.91582C19.9241 4.70751 19.635 5.588 19.3934 6.45079L19.0711 7.66397C18.9278 8.14768 17.9197 13.5419 17.9693 13.6305C17.9938 13.6742 18.1083 13.7432 18.1499 13.789C18.6649 14.357 18.9785 15.0058 19.349 15.6701L22.0955 21.639L24.7844 28.2523C25.0578 28.954 24.2315 29.1623 23.7646 29.3641C23.1503 29.6298 22.5168 29.9083 21.9671 30.2929L20.8863 31.0945C20.2569 31.5278 19.564 31.8829 18.8685 32.1971ZM16.5007 2.21692C16.4854 2.36091 16.4925 2.50839 16.4705 2.65058C16.1476 4.74099 14.308 6.44346 12.1425 5.80733C10.4434 5.30826 9.66612 3.93769 9.50625 2.25223C8.60202 2.53041 7.44792 3.1674 6.76319 3.80182C7.00272 4.20494 7.21955 4.67808 7.36659 5.12007L8.10362 7.44416L8.75125 10.6556C8.77599 10.9104 8.8366 11.1678 8.87682 11.4211L8.95967 11.9331C9.02612 12.3944 9.06846 13.1655 9.17713 13.5357L16.9455 13.5295C17.0148 12.7497 17.1849 11.9695 17.3173 11.1974C17.7083 8.9176 18.1116 6.60232 18.9703 4.44305C19.0044 4.35733 19.2452 3.81734 19.2386 3.77801C18.4955 3.05214 17.4552 2.58168 16.5007 2.21692ZM8.86156 14.6211L2.33865 28.1094L3.34166 28.3493C3.55518 28.4003 3.77361 28.4689 3.99298 28.4845L3.99498 28.462C4.01024 28.3022 4.05325 28.1494 4.0832 27.9922L4.42258 26.5874C4.85636 25.1016 5.4721 23.6738 6.19448 22.3063C7.20649 20.3904 8.36774 18.5581 9.06879 16.4965C9.15485 16.2434 9.21371 15.9655 9.32305 15.7224C9.54104 15.2377 10.0735 15.3111 10.2846 15.8086C10.5534 16.4419 8.50547 20.2782 8.16955 20.8854L6.99431 22.9967C6.19753 24.5412 5.56497 26.1632 5.16029 27.8539L5.0227 28.5001C4.53543 30.8862 6.09317 31.4727 8.24161 31.4643C8.52757 31.4631 8.89233 31.499 9.16478 31.4181C9.28927 31.3811 9.44895 31.3924 9.5788 31.3917L11.1797 31.3964C11.6708 31.4207 12.3256 31.4828 12.8028 31.5515L15.0164 31.8955C15.8038 31.9871 16.6423 31.8633 17.3931 31.6124C18.3867 31.3361 19.4382 30.8126 20.2865 30.2173C20.7831 29.8688 21.2477 29.4745 21.7587 29.1465C21.2417 28.1768 20.8111 27.1394 20.3735 26.1317L16.2105 16.714C16.11 16.4863 15.8573 16.1047 15.942 15.8475L15.9721 15.7711C16.0808 15.4992 16.3719 15.3264 16.6536 15.4565C16.9007 15.5706 17.1394 16.1476 17.2419 16.4267L22.6159 28.5589C22.6354 28.6027 22.6632 28.6434 22.6886 28.684L23.6551 28.2518C23.5259 27.8384 23.3581 27.4348 23.2029 27.0305L22.0035 24.0854L18.3204 15.9589C18.106 15.5421 17.898 15.1499 17.5996 14.787C17.4126 14.5595 17.4195 14.6215 17.1177 14.6213L8.86156 14.6211Z" fill="#E35700" stroke="#E35700" stroke-width="0.5"/>
</svg>
