<svg width="32" height="32" viewBox="0 0 32 32" fill="none" xmlns="http://www.w3.org/2000/svg">
<path d="M28 22.6669C28 24.876 26.2091 26.6669 24 26.6669C21.7909 26.6669 20 24.876 20 22.6669C20 20.4578 21.7909 18.6669 24 18.6669C26.2091 18.6669 28 20.4578 28 22.6669ZM28 22.6669V14.3667C28 12.5466 26.2168 11.2613 24.4901 11.8369L15.6468 14.7846C13.469 15.5106 12 17.5487 12 19.8443V25.3336M12 25.3336C12 27.5427 10.2091 29.3336 8 29.3336C5.79086 29.3336 4 27.5427 4 25.3336C4 23.1244 5.79086 21.3336 8 21.3336C10.2091 21.3336 12 23.1244 12 25.3336ZM28 16.0002V6.36671C28 4.54656 26.2168 3.2613 24.4901 3.83689L15.6468 6.78464C13.469 7.51059 12 9.54866 12 11.8443V18.6669" stroke="#E35700" stroke-width="2" stroke-linecap="round" stroke-linejoin="round"/>
</svg>
