<svg width="201" height="200" viewBox="0 0 201 200" fill="none" xmlns="http://www.w3.org/2000/svg">
<ellipse cx="99.0859" cy="111.382" rx="82.9824" ry="88.6186" fill="#BABABA" fill-opacity="0.1"/>
<path d="M99.0859 22.8188C144.881 22.8189 182.012 62.4663 182.012 111.381C182.012 160.297 144.881 199.944 99.0859 199.944C53.2904 199.944 16.1592 160.297 16.1592 111.381C16.1594 62.4663 53.2905 22.8188 99.0859 22.8188Z" stroke="#BABABA" stroke-opacity="0.1" stroke-width="0.11212"/>
<ellipse cx="21.3047" cy="51.5461" rx="5.20117" ry="5.55444" fill="black" fill-opacity="0.4"/>
<path d="M21.3047 45.9956C24.1751 45.9956 26.502 48.4805 26.502 51.5464C26.5018 54.6122 24.175 57.0972 21.3047 57.0972C18.4344 57.0972 16.1075 54.6122 16.1074 51.5464C16.1074 48.4805 18.4343 45.9956 21.3047 45.9956Z" stroke="#BABABA" stroke-opacity="0.1" stroke-width="0.00702749"/>
<ellipse cx="155.826" cy="29.5805" rx="9.6931" ry="10.3515" fill="black" fill-opacity="0.4"/>
<path d="M155.826 19.2358C161.175 19.236 165.513 23.8669 165.513 29.5806C165.513 35.2942 161.175 39.9251 155.826 39.9253C150.477 39.9253 146.14 35.2943 146.14 29.5806C146.14 23.8668 150.477 19.2358 155.826 19.2358Z" stroke="#BABABA" stroke-opacity="0.1" stroke-width="0.0130967"/>
<ellipse cx="22.9595" cy="168.441" rx="9.22026" ry="9.84651" fill="black" fill-opacity="0.4"/>
<path d="M22.96 158.6C28.0481 158.6 32.1738 163.006 32.1738 168.441C32.1737 173.876 28.0481 178.281 22.96 178.281C17.8716 178.281 13.7452 173.876 13.7451 168.441C13.7451 163.006 17.8716 158.6 22.96 158.6Z" stroke="#BABABA" stroke-opacity="0.1" stroke-width="0.0124578"/>
<ellipse cx="187.979" cy="158.847" rx="9.22026" ry="9.84651" fill="black" fill-opacity="0.4"/>
<path d="M187.979 149.006C193.067 149.007 197.193 153.412 197.193 158.847C197.193 164.282 193.067 168.687 187.979 168.687C182.891 168.687 178.764 164.282 178.764 158.847C178.764 153.412 182.891 149.006 187.979 149.006Z" stroke="#BABABA" stroke-opacity="0.1" stroke-width="0.0124578"/>
<ellipse cx="170.011" cy="169.957" rx="4.49192" ry="4.79702" fill="black" fill-opacity="0.4"/>
<path d="M170.011 165.163C172.49 165.163 174.499 167.309 174.5 169.957C174.5 172.604 172.49 174.75 170.011 174.75C167.532 174.75 165.522 172.604 165.522 169.957C165.522 167.309 167.532 165.163 170.011 165.163Z" stroke="#BABABA" stroke-opacity="0.1" stroke-width="0.00606919"/>
<path d="M113.029 36.6896C112.718 36.6189 112.718 36.1752 113.029 36.1045L117.055 35.1903C117.17 35.1641 117.259 35.073 117.283 34.9574L118.132 30.7756C118.197 30.4552 118.655 30.4552 118.72 30.7756L119.569 34.9574C119.592 35.073 119.681 35.1641 119.796 35.1903L123.822 36.1045C124.134 36.1752 124.134 36.6189 123.822 36.6896L119.796 37.6038C119.681 37.6299 119.592 37.721 119.569 37.8366L118.72 42.0184C118.655 42.3388 118.197 42.3388 118.132 42.0184L117.283 37.8366C117.259 37.721 117.17 37.6299 117.055 37.6038L113.029 36.6896Z" fill="black" fill-opacity="0.4"/>
<path d="M113.046 36.6167C112.842 36.5702 112.816 36.3093 112.97 36.2095L113.046 36.1772L117.071 35.2632C117.197 35.2346 117.299 35.1441 117.342 35.0249L117.356 34.9722L118.205 30.7905C118.251 30.5652 118.556 30.5512 118.634 30.7485L118.646 30.7905L119.495 34.9722C119.521 35.0986 119.609 35.2019 119.728 35.2476L119.78 35.2632L123.806 36.1772C124.01 36.2237 124.035 36.4846 123.882 36.5845L123.806 36.6167L119.78 37.5308C119.654 37.5593 119.553 37.6499 119.51 37.769L119.495 37.8218L118.646 42.0034C118.601 42.2288 118.296 42.2428 118.218 42.0454L118.205 42.0034L117.356 37.8218C117.331 37.6953 117.242 37.592 117.124 37.5464L117.071 37.5308L113.046 36.6167Z" stroke="#BABABA" stroke-opacity="0.1" stroke-width="0.15"/>
<path d="M11.88 115.349C11.9963 114.762 12.8357 114.762 12.952 115.349L14.4539 122.927C14.4956 123.137 14.6569 123.304 14.8661 123.353L22.0443 125.023C22.6078 125.154 22.6078 125.956 22.0443 126.087L14.8661 127.757C14.6569 127.806 14.4956 127.972 14.4539 128.183L12.952 135.76C12.8357 136.347 11.9963 136.347 11.88 135.76L10.3781 128.183C10.3364 127.972 10.1751 127.806 9.96593 127.757L2.78766 126.087C2.22418 125.956 2.22418 125.154 2.78766 125.023L9.96593 123.353C10.1751 123.304 10.3364 123.137 10.3781 122.927L11.88 115.349Z" fill="black" fill-opacity="0.4"/>
<path d="M12.1484 115.403C12.203 115.128 12.5748 115.11 12.6689 115.351L12.6836 115.403L14.1855 122.98C14.2404 123.257 14.4329 123.483 14.6904 123.583L14.8037 123.619L21.9824 125.289C22.2465 125.35 22.2632 125.707 22.0322 125.805L21.9824 125.821L14.8037 127.491C14.5292 127.555 14.3102 127.755 14.2178 128.015L14.1855 128.129L12.6836 135.708C12.6287 135.982 12.2571 135.999 12.1631 135.758L12.1484 135.708L10.6465 128.129C10.5916 127.853 10.399 127.627 10.1416 127.526L10.0283 127.491L2.84961 125.821C2.58562 125.759 2.56907 125.404 2.7998 125.305L2.84961 125.289L10.0283 123.619C10.3025 123.555 10.5217 123.355 10.6143 123.095L10.6465 122.98L12.1484 115.403Z" stroke="#BABABA" stroke-opacity="0.1" stroke-width="0.546429"/>
<path d="M47.4855 10.1278C47.5501 9.80172 48.0164 9.80172 48.081 10.1278L48.9154 14.3372C48.9385 14.4542 49.0281 14.5468 49.1443 14.5738L53.1321 15.5016C53.4451 15.5744 53.4451 16.0201 53.1321 16.0929L49.1443 17.0206C49.0281 17.0477 48.9385 17.1402 48.9154 17.2573L48.081 21.4667C48.0164 21.7927 47.5501 21.7927 47.4855 21.4667L46.6511 17.2573C46.628 17.1402 46.5384 17.0477 46.4222 17.0206L42.4344 16.0929C42.1214 16.0201 42.1214 15.5744 42.4344 15.5016L46.4222 14.5738C46.5384 14.5468 46.628 14.4542 46.6511 14.3372L47.4855 10.1278Z" fill="black" fill-opacity="0.4"/>
<path d="M47.6343 10.1577C47.6626 10.015 47.845 9.99673 47.9116 10.104L47.9321 10.1577L48.7661 14.3667C48.7965 14.5202 48.9036 14.6455 49.0464 14.7017L49.1099 14.7212L53.0981 15.6489C53.2348 15.681 53.2516 15.8559 53.1489 15.9233L53.0981 15.9448L49.1099 16.8726C48.9574 16.908 48.8351 17.0189 48.7837 17.1636L48.7661 17.228L47.9321 21.437C47.9038 21.5797 47.7214 21.5978 47.6548 21.4907L47.6343 21.437L46.8003 17.228C46.7698 17.0744 46.663 16.9482 46.52 16.8921L46.4565 16.8726L42.4692 15.9448C42.3324 15.913 42.3149 15.739 42.4175 15.6714L42.4692 15.6489L46.4565 14.7212C46.6089 14.6857 46.7312 14.5757 46.7827 14.4312L46.8003 14.3667L47.6343 10.1577Z" stroke="#BABABA" stroke-opacity="0.1" stroke-width="0.303557"/>
<path d="M173.174 54.2497C173.29 53.6627 174.13 53.6627 174.246 54.2497L175.089 58.5047C175.131 58.7153 175.292 58.882 175.502 58.9306L179.613 59.8872C180.177 60.0183 180.177 60.8205 179.613 60.9516L175.502 61.9082C175.292 61.9569 175.131 62.1235 175.089 62.3342L174.246 66.5892C174.13 67.1761 173.29 67.1761 173.174 66.5892L172.331 62.3342C172.289 62.1235 172.128 61.9569 171.918 61.9082L167.807 60.9516C167.243 60.8205 167.243 60.0183 167.807 59.8872L171.918 58.9306C172.128 58.882 172.289 58.7153 172.331 58.5047L173.174 54.2497Z" fill="black" fill-opacity="0.4"/>
<path d="M173.442 54.3032C173.496 54.028 173.869 54.0104 173.963 54.2515L173.978 54.3032L174.822 58.5581C174.877 58.8345 175.068 59.0606 175.326 59.1616L175.44 59.1968L179.551 60.1528C179.815 60.2143 179.832 60.571 179.601 60.6694L179.551 60.6851L175.44 61.6421C175.166 61.7059 174.946 61.9052 174.853 62.1655L174.822 62.2808L173.978 66.5356C173.923 66.8109 173.551 66.8285 173.457 66.5874L173.442 66.5356L172.598 62.2808C172.543 62.0044 172.352 61.7782 172.094 61.6772L171.98 61.6421L167.869 60.6851C167.605 60.6236 167.588 60.2679 167.819 60.1694L167.869 60.1528L171.98 59.1968C172.254 59.1329 172.474 58.9337 172.567 58.6733L172.598 58.5581L173.442 54.3032Z" stroke="#BABABA" stroke-opacity="0.1" stroke-width="0.546429"/>
<path d="M192.309 128.465L193.757 135.771L200.5 137.339L193.757 138.908L192.309 146.213L190.861 138.908L184.118 137.339L190.861 135.771L192.309 128.465Z" fill="white"/>
<path d="M193.489 135.824L193.523 135.997L193.695 136.037L199.294 137.338L193.695 138.642L193.523 138.682L193.489 138.855L192.309 144.808L191.129 138.855L191.095 138.682L190.923 138.642L185.323 137.338L190.923 136.037L191.095 135.997L191.129 135.824L192.309 129.87L193.489 135.824Z" stroke="#BABABA" stroke-opacity="0.1" stroke-width="0.546429"/>
<ellipse cx="11.2246" cy="11.5223" rx="11.2246" ry="11.5223" transform="matrix(0.961868 -0.273513 0.250134 0.968211 60.7803 22.9236)" fill="black" fill-opacity="0.4"/>
<path d="M71.827 20.8217C77.235 19.2839 82.8339 22.5625 84.2938 28.2131C85.7534 33.8636 82.499 39.6599 77.0911 41.1976C71.6831 42.7354 66.0842 39.4567 64.6243 33.8062C63.1645 28.1557 66.419 22.3595 71.827 20.8217Z" stroke="#BABABA" stroke-opacity="0.4" stroke-width="2"/>
<path d="M71.1817 30.9855L74.3526 29.6229L80.2776 27.9382C85.04 26.5839 90.0362 26.4473 94.8134 27.5407C96.5284 27.9332 98.2019 28.4812 99.814 29.1782L106.138 31.9126L109.704 34.0182C112.63 35.7453 115.337 37.8185 117.771 40.1951C120.478 42.8379 122.825 45.8343 124.752 49.1085L128.44 55.373L135.54 71.6533L140.441 83.1563L148.153 96.823L154.126 107.498L158.802 114.711C160.121 116.744 162.138 118.203 164.475 118.813C166.258 119.279 167.867 120.242 169.12 121.595L171.414 124.073C171.728 124.411 172.011 124.778 172.258 125.17C173.712 127.463 173.851 130.399 172.637 132.885C171.804 134.593 170.395 135.965 168.675 136.734L158.513 141.281L142.671 147.18L114.746 155.872L98.8213 160.4L76.4632 166.007L56.505 170.288L45.7575 171.754C43.6351 172.043 41.5284 171.268 40.1146 169.677C38.9481 168.365 38.3642 166.62 38.4951 164.838L38.6851 162.253C38.8424 160.113 39.8543 158.112 41.4868 156.713C43.0941 155.335 44.1009 153.373 44.2809 151.267L45.2176 140.31L45.0964 126.128L43.2688 106.605L42.268 92.7731L41.7489 86.7695C41.4482 83.2927 41.41 79.7922 41.6345 76.2984L41.755 74.4219C42.0042 70.5444 42.6797 66.6982 43.7691 62.9547C44.7746 59.499 46.1272 56.1501 47.8055 52.9609L48.2736 52.0714C49.7973 49.1758 51.6249 46.4504 53.7241 43.9436C55.9531 41.2819 58.4737 38.8839 61.2355 36.7976L61.399 36.674C64.4273 34.3865 67.7125 32.4762 71.1817 30.9855Z" fill="black" fill-opacity="0.4" stroke="#BABABA" stroke-opacity="0.4" stroke-width="2"/>
<path d="M71.1778 30.9689L74.3487 29.6063L80.2737 27.9216C85.0361 26.5673 90.0323 26.4307 94.8095 27.5241C96.5245 27.9166 98.198 28.4646 99.8101 29.1616L106.134 31.896L109.7 34.0016C112.626 35.7287 115.333 37.8019 117.767 40.1786C120.474 42.8213 122.821 45.8177 124.748 49.0919L128.436 55.3564L135.536 71.6368L140.437 83.1397L148.149 96.8064L154.122 107.482L158.326 113.669C160.012 116.151 162.592 117.916 165.503 118.613C167.523 119.097 169.403 120.113 170.904 121.548L171.626 122.239C172.797 123.36 173.623 124.802 174.007 126.397C174.392 127.997 174.312 129.694 173.783 131.272C173.589 131.852 173.334 132.414 173.026 132.943L172.923 133.12C171.942 134.804 170.532 136.196 168.845 137.146L166.235 138.616L161.047 141.538L146.489 148.529L136.638 152.714L128.1 156.198L120.872 158.743L113.426 161.524L107.071 163.364L102.687 164.511L90.845 167.011L79.6602 169.281L58.5961 172.356L52.2602 173.054C50.9288 173.201 49.5881 173.184 48.2675 173.004L45.3617 172.607C43.4263 172.343 41.6571 171.4 40.3607 169.942C39.023 168.437 38.2768 166.482 38.2593 164.437L38.2516 163.528C38.2468 162.974 38.2837 162.42 38.3618 161.871L38.398 161.616C38.74 159.21 39.6789 156.918 41.1266 154.957L41.9795 153.801C44.8016 149.978 46.2026 145.288 45.9299 140.577L45.0925 126.111L43.2649 106.589L42.2641 92.7565L41.745 86.753C41.4443 83.2761 41.4061 79.7756 41.6306 76.2818L41.7511 74.4053C42.0003 70.5278 42.6758 66.6816 43.7652 62.9381C44.7707 59.4824 46.1233 56.1335 47.8016 52.9443L48.2696 52.0548C49.7934 49.1592 51.621 46.4338 53.7202 43.927C55.9492 41.2653 58.4697 38.8673 61.2316 36.781L61.3951 36.6574C64.4233 34.3699 67.7085 32.4596 71.1778 30.9689Z" fill="white" stroke="#BABABA" stroke-opacity="0.4" stroke-width="2"/>
<ellipse cx="60.0641" cy="11.3489" rx="60.0641" ry="11.3489" transform="matrix(0.960465 -0.278885 0.254705 0.9669 44.7344 153.406)" fill="white"/>
<path d="M102.679 137.622C118.568 133.008 133.251 130.064 144.135 129.026C149.586 128.506 154.032 128.47 157.186 128.919C158.766 129.145 159.963 129.484 160.785 129.906C161.608 130.329 161.942 130.771 162.043 131.156C162.144 131.541 162.075 132.101 161.576 132.908C161.077 133.714 160.217 134.65 158.971 135.696C156.486 137.783 152.653 140.151 147.723 142.645C137.877 147.626 123.84 153.021 107.951 157.635C92.0615 162.249 77.3786 165.193 66.4943 166.231C61.0438 166.751 56.5964 166.787 53.4428 166.338C51.8625 166.113 50.666 165.773 49.8438 165.351C49.02 164.928 48.6868 164.485 48.5854 164.1C48.4841 163.715 48.5537 163.156 49.0531 162.349C49.5518 161.543 50.4122 160.607 51.6577 159.561C54.1432 157.474 57.9764 155.106 62.9067 152.612C72.7524 147.631 86.7895 142.236 102.679 137.622Z" stroke="#BABABA" stroke-opacity="0.4" stroke-width="2"/>
<path d="M95.5694 151.101L94.9035 150.332C94.1824 149.499 93.5691 148.577 93.0792 147.589C92.7525 146.93 92.4823 146.245 92.2714 145.541L91.0994 141.628L93.745 140.633L96.3973 139.589L102.927 137.743L110.282 135.691L114.61 134.713L114.798 135.388C115.45 137.734 115.763 140.157 115.728 142.58L115.584 144.399C115.425 146.394 114.808 148.314 113.783 150.006L113.678 150.178C113.277 150.841 112.806 151.456 112.273 152.013C110.707 153.652 108.661 154.737 106.426 155.115L105.8 155.221C105.13 155.334 104.449 155.378 103.767 155.353C101.561 155.272 99.4248 154.468 97.6799 153.06L97.1774 152.654C96.5971 152.186 96.0588 151.666 95.5694 151.101Z" fill="black" fill-opacity="0.4" stroke="#BABABA" stroke-opacity="0.4" stroke-width="2"/>
</svg>
