<svg width="34" height="35" viewBox="0 0 34 35" fill="none" xmlns="http://www.w3.org/2000/svg">
<rect y="0.5" width="34" height="34" rx="17" />
<path d="M17.0205 8.05005C20.3637 8.05021 23.0898 10.7759 23.0898 14.1301V16.0002C23.0899 16.3026 23.1571 16.6688 23.25 17.0012C23.3424 17.332 23.4748 17.6781 23.6318 17.9368V17.9377L24.7617 19.8176C25.0945 20.3791 25.1572 21.0392 24.9326 21.6428C24.7335 22.1691 24.3426 22.5952 23.8281 22.8352L23.6006 22.926C22.6765 23.234 21.7317 23.482 20.7793 23.6565L20.3711 23.7258L20.3604 23.7278L20.0752 23.7717L20.0566 23.7737L20.0381 23.7766L19.5254 23.843L19.5127 23.845C19.4097 23.859 19.3036 23.8703 19.1943 23.8811L18.8564 23.9124H18.8516C18.2481 23.9707 17.6345 24.0002 17.0205 24.0002C16.5522 24.0002 16.0839 23.9833 15.6201 23.9504L15.1572 23.9124L15.1475 23.9114L14.7686 23.8762L14.3965 23.8254L14.3867 23.8245L13.9512 23.7649H13.9502C13.8896 23.7544 13.8312 23.7461 13.7832 23.7395L13.6396 23.718L13.6348 23.717L12.8223 23.5647C12.1487 23.4258 11.4833 23.2575 10.8232 23.053L10.4287 22.926L10.4248 22.9241L10.1846 22.8323C9.72131 22.6241 9.36323 22.2809 9.15234 21.8684L9.05957 21.6565L9.05859 21.6545L8.99316 21.4397C8.8706 20.9277 8.96243 20.3452 9.28125 19.804L9.28027 19.803L10.4092 17.928L10.4121 17.9231C10.5623 17.6666 10.6909 17.3201 10.7822 16.9885C10.8733 16.6576 10.9404 16.2925 10.9404 15.9905V14.1301C10.9404 10.7779 13.6648 8.05987 17.0205 8.05005ZM16.9902 11.1399C16.2942 11.1399 15.7307 11.7037 15.7305 12.3997V15.5002C15.7306 16.1963 16.2942 16.76 16.9902 16.76C17.6863 16.76 18.2499 16.1963 18.25 15.5002V12.3997C18.2498 11.7037 17.6862 11.1399 16.9902 11.1399Z" stroke="#4B5563"/>
<path d="M15.2466 26.127V26.1279C15.8284 26.179 16.4231 26.21 17.02 26.21C17.4606 26.21 17.9 26.1924 18.3335 26.1621L18.7642 26.1279H18.7681C18.8104 26.1239 18.8571 26.1192 18.9067 26.1152C18.4456 26.6563 17.7621 26.9999 17.0005 27C16.3416 27 15.6923 26.7318 15.2397 26.2627L15.2222 26.2451L15.1304 26.1523C15.1185 26.1395 15.1078 26.1255 15.0962 26.1123C15.1462 26.1172 15.1963 26.1227 15.2466 26.127Z" stroke="#4B5563"/>
<circle cx="22.5" cy="11" r="2.35" fill="#E35700" stroke="white" stroke-width="0.3"/>
</svg>
