<svg width="32" height="32" viewBox="0 0 32 32" fill="none" xmlns="http://www.w3.org/2000/svg">
<path d="M13.3502 29.0701L13.5478 28.0899L13.3502 29.0701ZM25.4068 25.4493L24.7013 24.7406L25.4068 25.4493ZM14.6665 10.0001H15.6665C15.6665 8.34323 14.3234 7.00008 12.6665 7.00008V8.00008V9.00008C13.2188 9.00008 13.6665 9.4478 13.6665 10.0001H14.6665ZM12.6665 8.00008V7.00008C11.0097 7.00008 9.6665 8.34323 9.6665 10.0001H10.6665H11.6665C11.6665 9.4478 12.1142 9.00008 12.6665 9.00008V8.00008ZM10.6665 10.0001H9.6665C9.6665 11.6569 11.0097 13.0001 12.6665 13.0001V12.0001V11.0001C12.1142 11.0001 11.6665 10.5524 11.6665 10.0001H10.6665ZM12.6665 12.0001V13.0001C14.3234 13.0001 15.6665 11.6569 15.6665 10.0001H14.6665H13.6665C13.6665 10.5524 13.2188 11.0001 12.6665 11.0001V12.0001ZM24.6665 13.3334H25.6665C25.6665 11.6766 24.3234 10.3334 22.6665 10.3334V11.3334V12.3334C23.2188 12.3334 23.6665 12.7811 23.6665 13.3334H24.6665ZM22.6665 11.3334V10.3334C21.0096 10.3334 19.6665 11.6766 19.6665 13.3334H20.6665H21.6665C21.6665 12.7811 22.1142 12.3334 22.6665 12.3334V11.3334ZM20.6665 13.3334H19.6665C19.6665 14.9903 21.0096 16.3334 22.6665 16.3334V15.3334V14.3334C22.1142 14.3334 21.6665 13.8857 21.6665 13.3334H20.6665ZM22.6665 15.3334V16.3334C24.3234 16.3334 25.6665 14.9903 25.6665 13.3334H24.6665H23.6665C23.6665 13.8857 23.2188 14.3334 22.6665 14.3334V15.3334ZM12.6665 20.6667H13.6665C13.6665 19.0099 12.3234 17.6667 10.6665 17.6667V18.6667V19.6667C11.2188 19.6667 11.6665 20.1145 11.6665 20.6667H12.6665ZM10.6665 18.6667V17.6667C9.00965 17.6667 7.6665 19.0099 7.6665 20.6667H8.6665H9.6665C9.6665 20.1145 10.1142 19.6667 10.6665 19.6667V18.6667ZM8.6665 20.6667H7.6665C7.6665 22.3236 9.00965 23.6667 10.6665 23.6667V22.6667V21.6667C10.1142 21.6667 9.6665 21.219 9.6665 20.6667H8.6665ZM10.6665 22.6667V23.6667C12.3234 23.6667 13.6665 22.3236 13.6665 20.6667H12.6665H11.6665C11.6665 21.219 11.2188 21.6667 10.6665 21.6667V22.6667ZM13.3502 29.0701L13.5478 28.0899C7.91091 26.9533 3.6665 21.9713 3.6665 16.0001H2.6665H1.6665C1.6665 22.9421 6.60057 28.7294 13.1525 30.0504L13.3502 29.0701ZM2.6665 16.0001H3.6665C3.6665 9.18857 9.18833 3.66675 15.9998 3.66675V2.66675V1.66675C8.08376 1.66675 1.6665 8.084 1.6665 16.0001H2.6665ZM15.9998 2.66675V3.66675C22.8113 3.66675 28.3332 9.18857 28.3332 16.0001H29.3332H30.3332C30.3332 8.084 23.9159 1.66675 15.9998 1.66675V2.66675ZM18.9628 18.963V19.963C20.0469 19.963 20.9258 20.8419 20.9258 21.926H21.9258H22.9258C22.9258 19.7373 21.1515 17.963 18.9628 17.963V18.963ZM15.9998 21.926H16.9998C16.9998 20.8419 17.8787 19.963 18.9628 19.963V18.963V17.963C16.7741 17.963 14.9998 19.7373 14.9998 21.926H15.9998ZM21.9258 21.926H20.9258V23.6444H21.9258H22.9258V21.926H21.9258ZM29.3332 16.0001H28.3332C28.3332 19.416 26.9458 22.5061 24.7013 24.7406L25.4068 25.4493L26.1123 26.1579C28.7184 23.5635 30.3332 19.9694 30.3332 16.0001H29.3332ZM15.9998 21.926H14.9998V26.6668H15.9998H16.9998V21.926H15.9998ZM21.9258 23.6444H20.9258C20.9258 24.9887 21.6354 26.1322 22.662 26.6912C23.7261 27.2705 25.0819 27.1838 26.1123 26.1579L25.4068 25.4493L24.7013 24.7406C24.3288 25.1114 23.9441 25.112 23.6184 24.9346C23.2553 24.7369 22.9258 24.2797 22.9258 23.6444H21.9258ZM13.3502 29.0701L13.1525 30.0504C15.3531 30.4941 16.9998 28.6227 16.9998 26.6668H15.9998H14.9998C14.9998 27.6564 14.2347 28.2284 13.5478 28.0899L13.3502 29.0701Z" fill="#E35700"/>
</svg>
