<svg width="32" height="32" viewBox="0 0 32 32" fill="none" xmlns="http://www.w3.org/2000/svg">
<path d="M15.9998 18.6667C17.4726 18.6667 18.6665 17.4728 18.6665 16.0001C18.6665 14.5273 17.4726 13.3334 15.9998 13.3334C14.5271 13.3334 13.3332 14.5273 13.3332 16.0001C13.3332 17.4728 14.5271 18.6667 15.9998 18.6667ZM15.9998 18.6667V29.3334M9.33317 8.00008H22.6665C24.1393 8.00008 25.3332 6.80617 25.3332 5.33341C25.3332 3.86066 24.1393 2.66675 22.6665 2.66675H9.33317C7.86041 2.66675 6.6665 3.86066 6.6665 5.33341C6.6665 6.80617 7.86041 8.00008 9.33317 8.00008ZM9.32247 8.00008H22.6772L24.9626 15.1043C25.6251 16.7773 25.3904 18.6416 24.33 20.1292L17.269 28.7015C16.6684 29.5441 15.3313 29.5441 14.7307 28.7015L7.66968 20.1292C6.60927 18.6416 6.37458 16.7773 7.0371 15.1043L9.32247 8.00008Z" stroke="#E35700" stroke-width="2"/>
</svg>
