<svg width="32" height="31" viewBox="0 0 32 31" fill="none" xmlns="http://www.w3.org/2000/svg">
<g clip-path="url(#clip0_17_2091)">
<path fill-rule="evenodd" clip-rule="evenodd" d="M12.6785 6.93244L18.5112 7.67839C22.6236 8.20434 24.6798 8.46731 25.414 9.30243C26.1124 10.0969 26.3307 11.205 25.9859 12.205C25.6235 13.2562 23.8207 14.2796 20.2152 16.3263C19.6363 16.6549 19.3468 16.8192 19.122 17.0436C18.9041 17.2611 18.731 17.5191 18.6125 17.8032C18.4901 18.0963 18.4479 18.4265 18.3635 19.0868C17.8375 23.1992 17.5745 25.2555 16.7394 25.9896C15.945 26.688 14.8368 26.9064 13.8368 26.5615C12.7856 26.1991 11.7623 24.3963 9.71556 20.7908L6.81271 15.6771C4.27682 11.2098 3.00888 8.97615 4.02217 7.46555C5.03545 5.95496 7.58313 6.28078 12.6785 6.93244ZM14.6141 14.6185C14.362 14.9898 13.8568 15.0865 13.4855 14.8344L8.17764 11.2312C7.80637 10.9792 7.70971 10.4739 7.96175 10.1026C8.21378 9.73134 8.71907 9.63468 9.09033 9.88672L14.3982 13.49C14.7695 13.742 14.8661 14.2473 14.6141 14.6185Z" fill="white"/>
</g>
<defs>
<clipPath id="clip0_17_2091">
<rect width="26" height="26" fill="white" transform="translate(5.7583 30.7681) rotate(-101.147)"/>
</clipPath>
</defs>
</svg>
