<svg width="201" height="183" viewBox="0 0 201 183" fill="none" xmlns="http://www.w3.org/2000/svg">
<path d="M193.417 94.6098C193.417 119.081 183.421 141.139 167.395 156.994C151.713 172.676 129.999 182.154 106.045 182.154C82.2631 182.154 60.5493 172.504 44.6949 156.994C28.6681 141.139 18.6729 119.081 18.6729 94.6098C18.6729 46.1847 57.792 7.06555 106.045 7.06555C154.298 7.06555 193.417 46.3571 193.417 94.6098Z" fill="#DCF1D9"/>
<path d="M185.834 37.2234C189.736 37.2234 192.899 34.0601 192.899 30.1579C192.899 26.2557 189.736 23.0923 185.834 23.0923C181.931 23.0923 178.768 26.2557 178.768 30.1579C178.768 34.0601 181.931 37.2234 185.834 37.2234Z" fill="#DCF1D9"/>
<path d="M196.175 9.65055C198.84 9.65055 201 7.4902 201 4.82527C201 2.16035 198.84 0 196.175 0C193.51 0 191.35 2.16035 191.35 4.82527C191.35 7.4902 193.51 9.65055 196.175 9.65055Z" fill="#DCF1D9"/>
<path d="M21.4298 37.0509C24.0947 37.0509 26.255 34.8906 26.255 32.2257C26.255 29.5607 24.0947 27.4004 21.4298 27.4004C18.7648 27.4004 16.6045 29.5607 16.6045 32.2257C16.6045 34.8906 18.7648 37.0509 21.4298 37.0509Z" fill="#DCF1D9"/>
<path d="M8.96122 130.11C13.9104 130.11 17.9224 126.098 17.9224 121.149C17.9224 116.2 13.9104 112.188 8.96122 112.188C4.01208 112.188 0 116.2 0 121.149C0 126.098 4.01208 130.11 8.96122 130.11Z" fill="#DCF1D9"/>
<path d="M167.394 48.7698V156.994C151.712 172.676 129.998 182.154 106.044 182.154C82.2625 182.154 60.5488 172.504 44.6943 156.994V48.7698H167.394Z" fill="white"/>
<path opacity="0.5" d="M108.212 104.008L84.2061 80.0028L76.0417 88.1671L100.047 112.173L108.212 104.008Z" fill="#34BC46"/>
<path opacity="0.5" d="M127.903 68.0688L92.0771 103.894L100.241 112.059L136.067 76.2331L127.903 68.0688Z" fill="#34BC46"/>
<path d="M137.409 126.836H74.6802V134.763H137.409V126.836Z" fill="#D5DAE5"/>
<path d="M137.409 144.241H74.6802V152.168H137.409V144.241Z" fill="#D5DAE5"/>
<path d="M122.071 161.819H90.0171V169.746H122.071V161.819Z" fill="#D5DAE5"/>
</svg>
