<svg width="48" height="48" viewBox="0 0 48 48" fill="none" xmlns="http://www.w3.org/2000/svg">
<rect x="13" y="16" width="23" height="16" fill="white"/>
<path d="M43.12 21.4801L40.4 18.3201C39.88 17.7201 39.46 16.6001 39.46 15.8001V12.4001C39.46 10.2801 37.72 8.54012 35.6 8.54012H32.2C31.42 8.54012 30.28 8.12012 29.68 7.60012L26.52 4.88012C25.14 3.70012 22.88 3.70012 21.48 4.88012L18.34 7.62012C17.74 8.12012 16.6 8.54012 15.82 8.54012H12.36C10.24 8.54012 8.50001 10.2801 8.50001 12.4001V15.8201C8.50001 16.6001 8.08001 17.7201 7.58001 18.3201L4.88001 21.5001C3.72001 22.8801 3.72001 25.1201 4.88001 26.5001L7.58001 29.6801C8.08001 30.2801 8.50001 31.4001 8.50001 32.1801V35.6001C8.50001 37.7201 10.24 39.4601 12.36 39.4601H15.82C16.6 39.4601 17.74 39.8801 18.34 40.4001L21.5 43.1201C22.88 44.3001 25.14 44.3001 26.54 43.1201L29.7 40.4001C30.3 39.8801 31.42 39.4601 32.22 39.4601H35.62C37.74 39.4601 39.48 37.7201 39.48 35.6001V32.2001C39.48 31.4201 39.9 30.2801 40.42 29.6801L43.14 26.5201C44.3 25.1401 44.3 22.8601 43.12 21.4801ZM32.32 20.2201L22.66 29.8801C22.38 30.1601 22 30.3201 21.6 30.3201C21.2 30.3201 20.82 30.1601 20.54 29.8801L15.7 25.0401C15.12 24.4601 15.12 23.5001 15.7 22.9201C16.28 22.3401 17.24 22.3401 17.82 22.9201L21.6 26.7001L30.2 18.1001C30.78 17.5201 31.74 17.5201 32.32 18.1001C32.9 18.6801 32.9 19.6401 32.32 20.2201Z" fill="#35C63C"/>
</svg>