<svg width="24" height="24" viewBox="0 0 24 24" fill="none" xmlns="http://www.w3.org/2000/svg">
<path d="M15.75 15C15.5511 15 15.3603 15.079 15.2197 15.2197C15.079 15.3603 15 15.5511 15 15.75C15 15.9489 15.079 16.1397 15.2197 16.2803C15.3603 16.421 15.5511 16.5 15.75 16.5H18.75C18.9489 16.5 19.1397 16.421 19.2803 16.2803C19.421 16.1397 19.5 15.9489 19.5 15.75C19.5 15.5511 19.421 15.3603 19.2803 15.2197C19.1397 15.079 18.9489 15 18.75 15H15.75ZM1.5 8.25C1.5 7.25544 1.89509 6.30161 2.59835 5.59835C3.30161 4.89509 4.25544 4.5 5.25 4.5H18.75C19.7446 4.5 20.6984 4.89509 21.4016 5.59835C22.1049 6.30161 22.5 7.25544 22.5 8.25V15.75C22.5 16.7446 22.1049 17.6984 21.4016 18.4017C20.6984 19.1049 19.7446 19.5 18.75 19.5H5.25C4.25544 19.5 3.30161 19.1049 2.59835 18.4017C1.89509 17.6984 1.5 16.7446 1.5 15.75V8.25ZM21 9V8.25C21 7.65326 20.7629 7.08097 20.341 6.65901C19.919 6.23705 19.3467 6 18.75 6H5.25C4.65326 6 4.08097 6.23705 3.65901 6.65901C3.23705 7.08097 3 7.65326 3 8.25V9H21ZM3 10.5V15.75C3 16.3467 3.23705 16.919 3.65901 17.341C4.08097 17.7629 4.65326 18 5.25 18H18.75C19.3467 18 19.919 17.7629 20.341 17.341C20.7629 16.919 21 16.3467 21 15.75V10.5H3Z" fill="#E35700" fill-opacity="0.7"/>
<path d="M5.25 5H18.75C19.5582 5 20.3354 5.30088 20.9316 5.84082L21.0479 5.95215C21.6573 6.56164 22 7.38805 22 8.25V15.75C22 16.5582 21.6991 17.3354 21.1592 17.9316L21.0479 18.0479C20.4384 18.6573 19.612 19 18.75 19H5.25C4.44183 19 3.66457 18.6991 3.06836 18.1592L2.95215 18.0479C2.34266 17.4384 2 16.612 2 15.75V8.25L2.00391 8.08887C2.0411 7.33904 2.33687 6.62483 2.84082 6.06836L2.95215 5.95215C3.52356 5.38074 4.28558 5.04375 5.08887 5.00391L5.25 5ZM2.5 15.75C2.5 16.3883 2.72192 17.0038 3.12305 17.4932L3.30566 17.6943C3.82139 18.2101 4.52065 18.5 5.25 18.5H18.75C19.3883 18.5 20.0038 18.2781 20.4932 17.877L20.6943 17.6943C21.2101 17.1786 21.5 16.4793 21.5 15.75V10H2.5V15.75ZM15.75 15.5H18.75C18.8163 15.5 18.8799 15.5264 18.9268 15.5732C18.9736 15.6201 19 15.6837 19 15.75C19 15.8163 18.9736 15.8799 18.9268 15.9268C18.8799 15.9736 18.8163 16 18.75 16H15.75C15.6837 16 15.6201 15.9736 15.5732 15.9268C15.5264 15.8799 15.5 15.8163 15.5 15.75C15.5 15.6837 15.5264 15.6201 15.5732 15.5732C15.6201 15.5264 15.6837 15.5 15.75 15.5ZM5.25 5.5C4.61168 5.5 3.99624 5.72192 3.50684 6.12305L3.30566 6.30566C2.78994 6.82139 2.5 7.52065 2.5 8.25V9.5H21.5V8.25C21.5 7.61168 21.2781 6.99624 20.877 6.50684L20.6943 6.30566C20.1786 5.78994 19.4793 5.5 18.75 5.5H5.25Z" stroke="#E35700" stroke-opacity="0.7"/>
</svg>
